<svg width="86" height="58" viewBox="0 0 86 58" fill="none" xmlns="http://www.w3.org/2000/svg">
<path d="M0 0.149941L22.4163 57.8345L34.8199 25.2562L27.4973 5.52985C27.0988 4.23468 25.729 0.9696 22.8646 0.448825C21.2207 0.149951 17.3163 -0.0099801 12.7026 0.00048277C8.17353 0.0107534 3.20789 0.00188503 0 0.149941Z" fill="#022C87"/>
<path d="M22.416 57.8339L42.1423 5.97762C42.9892 4.08469 45.2806 0.298828 47.6717 0.298828H65.3058C68.992 0.398456 78.5208 2.14304 83.5377 12.5531C89.5154 24.9567 82.3422 35.2682 77.56 39.4526C77.401 39.5917 71.7318 44.2347 62.317 44.2347C52.9021 44.2347 52.1549 43.4875 49.9133 48.4191C47.6717 53.3507 47.2234 57.8339 42.8895 57.8339H22.416Z" fill="#0096DA"/>
</svg>
