<svg width="252" height="241" viewBox="0 0 252 241" fill="none" xmlns="http://www.w3.org/2000/svg">
<path d="M0 50C0 26.4298 0 14.6447 7.32233 7.32233C14.6447 0 26.4298 0 50 0H202C225.57 0 237.355 0 244.678 7.32233C252 14.6447 252 26.4298 252 50V241H0V50Z" fill="white"/>
<circle cx="126" cy="78" r="49" fill="#D5F3FC"/>
<g clip-path="url(#clip0_449_610)">
<path d="M144.592 80.6783C145.531 79.6022 146.001 78.3296 146.001 76.8602C146.001 75.5278 145.514 74.3748 144.542 73.4006C143.568 72.4264 142.415 71.9396 141.083 71.9396H133.985C134.053 71.7005 134.122 71.4955 134.19 71.3247C134.257 71.1539 134.352 70.9658 134.472 70.7608C134.591 70.5557 134.676 70.4019 134.727 70.2995C135.035 69.719 135.27 69.2404 135.433 68.8648C135.595 68.4886 135.756 67.9763 135.919 67.3271C136.082 66.6783 136.162 66.0289 136.162 65.3797C136.162 64.9699 136.158 64.6364 136.149 64.3804C136.141 64.1241 136.098 63.7396 136.022 63.2271C135.944 62.7148 135.842 62.2876 135.714 61.9461C135.586 61.6045 135.38 61.2199 135.099 60.7931C134.817 60.3655 134.475 60.0201 134.074 59.7551C133.672 59.4903 133.16 59.2683 132.536 59.0891C131.912 58.9096 131.208 58.82 130.421 58.82C129.977 58.82 129.593 58.9823 129.268 59.307C128.927 59.6486 128.636 60.0756 128.397 60.5879C128.158 61.1005 127.991 61.5447 127.897 61.9206C127.803 62.2964 127.696 62.8176 127.577 63.4837C127.423 64.2015 127.308 64.7179 127.231 65.034C127.154 65.35 127.004 65.7642 126.782 66.2766C126.56 66.7893 126.295 67.199 125.988 67.5067C125.424 68.0704 124.561 69.0954 123.399 70.5815C122.562 71.6747 121.7 72.7082 120.811 73.682C119.923 74.656 119.274 75.1599 118.864 75.1941C118.437 75.2282 118.07 75.4033 117.762 75.7195C117.455 76.0355 117.301 76.4072 117.301 76.8341V93.2596C117.301 93.7038 117.463 94.0837 117.788 94.3998C118.112 94.7161 118.496 94.8826 118.941 94.8998C119.538 94.9169 120.888 95.2923 122.989 96.0276C124.305 96.4711 125.334 96.809 126.077 97.0393C126.82 97.2696 127.858 97.5175 129.19 97.7826C130.523 98.0473 131.752 98.18 132.88 98.18H133.315H135.263H136.185C138.458 98.1459 140.14 97.4794 141.234 96.1814C142.224 95.0025 142.642 93.4565 142.489 91.5431C143.155 90.9111 143.617 90.1085 143.873 89.1345C144.163 88.0931 144.163 87.0936 143.873 86.1371C144.658 85.095 145.026 83.9248 144.974 82.6264C144.976 82.0792 144.849 81.4302 144.592 80.6783Z" fill="#97A9FF"/>
<path d="M114.02 75.2202H106.64C106.196 75.2202 105.811 75.3825 105.487 75.7072C105.162 76.0316 105 76.416 105 76.8602V93.2608C105 93.7044 105.162 94.0889 105.487 94.4138C105.812 94.7379 106.196 94.9004 106.64 94.9004H114.02C114.464 94.9004 114.848 94.7379 115.173 94.4138C115.498 94.0889 115.66 93.7044 115.66 93.2608V76.8602C115.66 76.416 115.498 76.0317 115.173 75.7072C114.848 75.3825 114.464 75.2202 114.02 75.2202ZM111.073 91.1462C110.749 91.4622 110.364 91.6201 109.92 91.6201C109.459 91.6201 109.07 91.4622 108.754 91.1462C108.438 90.8301 108.28 90.4416 108.28 89.9803C108.28 89.5362 108.438 89.1517 108.754 88.8272C109.07 88.5026 109.459 88.3401 109.92 88.3401C110.364 88.3401 110.749 88.5026 111.073 88.8272C111.398 89.1516 111.56 89.5361 111.56 89.9803C111.56 90.4416 111.398 90.83 111.073 91.1462Z" fill="#97A9FF"/>
</g>
<path d="M75.2642 166L71.3582 151.153H73.8572L76.9652 163.858L80.0102 151.153H83.1812L86.2052 163.858L89.3132 151.153H91.6862L87.8012 166H84.5672L81.5432 153.505L78.5192 166H75.2642ZM97.2772 166.126C96.1152 166.126 95.1422 165.888 94.3582 165.412C93.5742 164.936 92.9792 164.278 92.5732 163.438C92.1812 162.584 91.9852 161.604 91.9852 160.498C91.9852 159.378 92.1882 158.391 92.5942 157.537C93.0142 156.683 93.6162 156.011 94.4002 155.521C95.1982 155.031 96.1572 154.786 97.2772 154.786C98.1312 154.786 98.8732 154.947 99.5032 155.269C100.133 155.577 100.651 155.997 101.057 156.529C101.477 157.061 101.785 157.656 101.981 158.314C102.177 158.958 102.261 159.63 102.233 160.33C102.233 160.484 102.226 160.631 102.212 160.771C102.198 160.911 102.184 161.058 102.17 161.212H94.1692C94.2112 161.772 94.3512 162.283 94.5892 162.745C94.8412 163.207 95.1912 163.578 95.6392 163.858C96.0872 164.124 96.6402 164.257 97.2982 164.257C97.6622 164.257 98.0122 164.215 98.3482 164.131C98.6982 164.033 99.0062 163.886 99.2722 163.69C99.5522 163.48 99.7482 163.214 99.8602 162.892H102.044C101.862 163.634 101.533 164.25 101.057 164.74C100.595 165.216 100.028 165.566 99.3562 165.79C98.6982 166.014 98.0052 166.126 97.2772 166.126ZM94.2112 159.49H100.091C100.077 158.944 99.9512 158.461 99.7132 158.041C99.4752 157.607 99.1462 157.271 98.7262 157.033C98.3062 156.781 97.8022 156.655 97.2142 156.655C96.5702 156.655 96.0312 156.788 95.5972 157.054C95.1772 157.32 94.8482 157.67 94.6102 158.104C94.3862 158.524 94.2532 158.986 94.2112 159.49ZM103.624 166V151.153H105.787V166H103.624ZM112.433 166.126C111.271 166.126 110.298 165.888 109.514 165.412C108.744 164.936 108.163 164.278 107.771 163.438C107.393 162.584 107.204 161.604 107.204 160.498C107.204 159.406 107.4 158.433 107.792 157.579C108.198 156.711 108.8 156.032 109.598 155.542C110.41 155.038 111.411 154.786 112.601 154.786C113.413 154.786 114.134 154.926 114.764 155.206C115.394 155.472 115.905 155.871 116.297 156.403C116.703 156.921 116.969 157.572 117.095 158.356H114.932C114.75 157.782 114.442 157.369 114.008 157.117C113.588 156.865 113.091 156.739 112.517 156.739C111.747 156.739 111.131 156.921 110.669 157.285C110.221 157.649 109.892 158.118 109.682 158.692C109.472 159.266 109.367 159.868 109.367 160.498C109.367 161.156 109.472 161.765 109.682 162.325C109.906 162.885 110.242 163.34 110.69 163.69C111.152 164.026 111.754 164.194 112.496 164.194C113.056 164.194 113.574 164.075 114.05 163.837C114.526 163.585 114.834 163.165 114.974 162.577H117.2C117.074 163.389 116.78 164.061 116.318 164.593C115.856 165.111 115.282 165.496 114.596 165.748C113.924 166 113.203 166.126 112.433 166.126ZM123.388 166.126C122.24 166.126 121.267 165.895 120.469 165.433C119.671 164.957 119.062 164.292 118.642 163.438C118.236 162.584 118.033 161.597 118.033 160.477C118.033 159.343 118.243 158.356 118.663 157.516C119.083 156.662 119.692 155.997 120.49 155.521C121.288 155.031 122.261 154.786 123.409 154.786C124.557 154.786 125.53 155.031 126.328 155.521C127.126 155.997 127.728 156.662 128.134 157.516C128.54 158.37 128.743 159.364 128.743 160.498C128.743 161.604 128.533 162.584 128.113 163.438C127.707 164.292 127.105 164.957 126.307 165.433C125.523 165.895 124.55 166.126 123.388 166.126ZM123.388 164.194C124.144 164.194 124.753 164.026 125.215 163.69C125.691 163.354 126.041 162.906 126.265 162.346C126.489 161.772 126.601 161.149 126.601 160.477C126.601 159.805 126.489 159.189 126.265 158.629C126.041 158.069 125.691 157.621 125.215 157.285C124.753 156.935 124.144 156.76 123.388 156.76C122.646 156.76 122.037 156.935 121.561 157.285C121.085 157.621 120.735 158.069 120.511 158.629C120.301 159.189 120.196 159.805 120.196 160.477C120.196 161.163 120.301 161.786 120.511 162.346C120.735 162.906 121.085 163.354 121.561 163.69C122.037 164.026 122.646 164.194 123.388 164.194ZM130.122 166V154.933H132.159L132.285 156.235C132.537 155.871 132.817 155.591 133.125 155.395C133.447 155.185 133.79 155.031 134.154 154.933C134.518 154.835 134.889 154.786 135.267 154.786C136.009 154.786 136.618 154.94 137.094 155.248C137.584 155.556 137.962 155.976 138.228 156.508C138.494 156.13 138.795 155.815 139.131 155.563C139.467 155.297 139.838 155.101 140.244 154.975C140.65 154.849 141.084 154.786 141.546 154.786C142.372 154.786 143.037 154.968 143.541 155.332C144.059 155.682 144.43 156.158 144.654 156.76C144.892 157.362 145.011 158.055 145.011 158.839V166H142.827V159.7C142.827 159.364 142.813 159.028 142.785 158.692C142.757 158.356 142.673 158.041 142.533 157.747C142.407 157.439 142.218 157.194 141.966 157.012C141.728 156.816 141.385 156.718 140.937 156.718C140.503 156.718 140.139 156.816 139.845 157.012C139.565 157.208 139.334 157.474 139.152 157.81C138.984 158.132 138.858 158.482 138.774 158.86C138.704 159.238 138.669 159.616 138.669 159.994V166H136.485V159.679C136.485 159.357 136.471 159.028 136.443 158.692C136.415 158.356 136.345 158.041 136.233 157.747C136.121 157.439 135.932 157.194 135.666 157.012C135.414 156.816 135.071 156.718 134.637 156.718C134.007 156.718 133.517 156.9 133.167 157.264C132.831 157.614 132.6 158.048 132.474 158.566C132.348 159.07 132.285 159.553 132.285 160.015V166H130.122ZM151.586 166.126C150.424 166.126 149.451 165.888 148.667 165.412C147.883 164.936 147.288 164.278 146.882 163.438C146.49 162.584 146.294 161.604 146.294 160.498C146.294 159.378 146.497 158.391 146.903 157.537C147.323 156.683 147.925 156.011 148.709 155.521C149.507 155.031 150.466 154.786 151.586 154.786C152.44 154.786 153.182 154.947 153.812 155.269C154.442 155.577 154.96 155.997 155.366 156.529C155.786 157.061 156.094 157.656 156.29 158.314C156.486 158.958 156.57 159.63 156.542 160.33C156.542 160.484 156.535 160.631 156.521 160.771C156.507 160.911 156.493 161.058 156.479 161.212H148.478C148.52 161.772 148.66 162.283 148.898 162.745C149.15 163.207 149.5 163.578 149.948 163.858C150.396 164.124 150.949 164.257 151.607 164.257C151.971 164.257 152.321 164.215 152.657 164.131C153.007 164.033 153.315 163.886 153.581 163.69C153.861 163.48 154.057 163.214 154.169 162.892H156.353C156.171 163.634 155.842 164.25 155.366 164.74C154.904 165.216 154.337 165.566 153.665 165.79C153.007 166.014 152.314 166.126 151.586 166.126ZM148.52 159.49H154.4C154.386 158.944 154.26 158.461 154.022 158.041C153.784 157.607 153.455 157.271 153.035 157.033C152.615 156.781 152.111 156.655 151.523 156.655C150.879 156.655 150.34 156.788 149.906 157.054C149.486 157.32 149.157 157.67 148.919 158.104C148.695 158.524 148.562 158.986 148.52 159.49ZM167.139 166.126C165.949 166.126 165.095 165.804 164.577 165.16C164.073 164.502 163.821 163.585 163.821 162.409V156.865H162.057V154.933H163.821V151.72H165.984V154.933H169.365V156.865H165.984V162.052C165.984 162.444 166.019 162.801 166.089 163.123C166.173 163.445 166.327 163.697 166.551 163.879C166.775 164.061 167.097 164.159 167.517 164.173C167.839 164.173 168.119 164.117 168.357 164.005C168.609 163.893 168.812 163.767 168.966 163.627L169.806 165.244C169.54 165.454 169.26 165.629 168.966 165.769C168.686 165.895 168.392 165.986 168.084 166.042C167.776 166.098 167.461 166.126 167.139 166.126ZM175.461 166.126C174.313 166.126 173.34 165.895 172.542 165.433C171.744 164.957 171.135 164.292 170.715 163.438C170.309 162.584 170.106 161.597 170.106 160.477C170.106 159.343 170.316 158.356 170.736 157.516C171.156 156.662 171.765 155.997 172.563 155.521C173.361 155.031 174.334 154.786 175.482 154.786C176.63 154.786 177.603 155.031 178.401 155.521C179.199 155.997 179.801 156.662 180.207 157.516C180.613 158.37 180.816 159.364 180.816 160.498C180.816 161.604 180.606 162.584 180.186 163.438C179.78 164.292 179.178 164.957 178.38 165.433C177.596 165.895 176.623 166.126 175.461 166.126ZM175.461 164.194C176.217 164.194 176.826 164.026 177.288 163.69C177.764 163.354 178.114 162.906 178.338 162.346C178.562 161.772 178.674 161.149 178.674 160.477C178.674 159.805 178.562 159.189 178.338 158.629C178.114 158.069 177.764 157.621 177.288 157.285C176.826 156.935 176.217 156.76 175.461 156.76C174.719 156.76 174.11 156.935 173.634 157.285C173.158 157.621 172.808 158.069 172.584 158.629C172.374 159.189 172.269 159.805 172.269 160.477C172.269 161.163 172.374 161.786 172.584 162.346C172.808 162.906 173.158 163.354 173.634 163.69C174.11 164.026 174.719 164.194 175.461 164.194ZM102.026 193L96.5033 178.153H98.9393L103.58 191.11L108.2 178.153H110.594L105.113 193H102.026ZM115.162 193.126C114 193.126 113.027 192.888 112.243 192.412C111.459 191.936 110.864 191.278 110.458 190.438C110.066 189.584 109.87 188.604 109.87 187.498C109.87 186.378 110.073 185.391 110.479 184.537C110.899 183.683 111.501 183.011 112.285 182.521C113.083 182.031 114.042 181.786 115.162 181.786C116.016 181.786 116.758 181.947 117.388 182.269C118.018 182.577 118.536 182.997 118.942 183.529C119.362 184.061 119.67 184.656 119.866 185.314C120.062 185.958 120.146 186.63 120.118 187.33C120.118 187.484 120.111 187.631 120.097 187.771C120.083 187.911 120.069 188.058 120.055 188.212H112.054C112.096 188.772 112.236 189.283 112.474 189.745C112.726 190.207 113.076 190.578 113.524 190.858C113.972 191.124 114.525 191.257 115.183 191.257C115.547 191.257 115.897 191.215 116.233 191.131C116.583 191.033 116.891 190.886 117.157 190.69C117.437 190.48 117.633 190.214 117.745 189.892H119.929C119.747 190.634 119.418 191.25 118.942 191.74C118.48 192.216 117.913 192.566 117.241 192.79C116.583 193.014 115.89 193.126 115.162 193.126ZM112.096 186.49H117.976C117.962 185.944 117.836 185.461 117.598 185.041C117.36 184.607 117.031 184.271 116.611 184.033C116.191 183.781 115.687 183.655 115.099 183.655C114.455 183.655 113.916 183.788 113.482 184.054C113.062 184.32 112.733 184.67 112.495 185.104C112.271 185.524 112.138 185.986 112.096 186.49ZM121.509 197.032V181.933H123.567L123.672 183.508C124.064 182.934 124.575 182.507 125.205 182.227C125.835 181.933 126.521 181.786 127.263 181.786C128.369 181.786 129.279 182.038 129.993 182.542C130.707 183.032 131.239 183.711 131.589 184.579C131.939 185.433 132.114 186.392 132.114 187.456C132.114 188.548 131.932 189.521 131.568 190.375C131.218 191.229 130.672 191.901 129.93 192.391C129.202 192.881 128.278 193.126 127.158 193.126C126.626 193.126 126.136 193.07 125.688 192.958C125.254 192.846 124.869 192.685 124.533 192.475C124.211 192.251 123.924 191.992 123.672 191.698V197.032H121.509ZM126.885 191.194C127.641 191.194 128.243 191.026 128.691 190.69C129.139 190.34 129.461 189.885 129.657 189.325C129.853 188.765 129.951 188.156 129.951 187.498C129.951 186.812 129.846 186.189 129.636 185.629C129.44 185.055 129.111 184.6 128.649 184.264C128.201 183.914 127.599 183.739 126.843 183.739C126.157 183.739 125.576 183.914 125.1 184.264C124.624 184.6 124.26 185.055 124.008 185.629C123.77 186.203 123.651 186.826 123.651 187.498C123.651 188.184 123.763 188.814 123.987 189.388C124.225 189.948 124.582 190.389 125.058 190.711C125.548 191.033 126.157 191.194 126.885 191.194ZM137.035 193.126C136.531 193.126 136.041 193.063 135.565 192.937C135.103 192.797 134.69 192.594 134.326 192.328C133.962 192.048 133.668 191.705 133.444 191.299C133.234 190.879 133.129 190.389 133.129 189.829C133.129 189.157 133.255 188.604 133.507 188.17C133.773 187.722 134.123 187.379 134.557 187.141C134.991 186.889 135.488 186.714 136.048 186.616C136.622 186.504 137.217 186.448 137.833 186.448H140.542C140.542 185.902 140.458 185.426 140.29 185.02C140.122 184.6 139.856 184.278 139.492 184.054C139.142 183.816 138.673 183.697 138.085 183.697C137.735 183.697 137.399 183.739 137.077 183.823C136.769 183.893 136.503 184.012 136.279 184.18C136.055 184.348 135.901 184.572 135.817 184.852H133.549C133.633 184.32 133.822 183.865 134.116 183.487C134.41 183.095 134.774 182.773 135.208 182.521C135.642 182.269 136.104 182.087 136.594 181.975C137.098 181.849 137.609 181.786 138.127 181.786C139.723 181.786 140.871 182.255 141.571 183.193C142.285 184.117 142.642 185.391 142.642 187.015V193H140.773L140.689 191.593C140.367 192.027 139.982 192.356 139.534 192.58C139.1 192.804 138.666 192.951 138.232 193.021C137.798 193.091 137.399 193.126 137.035 193.126ZM137.371 191.299C138.001 191.299 138.554 191.194 139.03 190.984C139.506 190.76 139.877 190.445 140.143 190.039C140.409 189.619 140.542 189.129 140.542 188.569V188.107H138.568C138.162 188.107 137.763 188.121 137.371 188.149C136.993 188.163 136.643 188.219 136.321 188.317C136.013 188.401 135.761 188.548 135.565 188.758C135.383 188.968 135.292 189.269 135.292 189.661C135.292 190.039 135.39 190.347 135.586 190.585C135.782 190.823 136.041 191.005 136.363 191.131C136.685 191.243 137.021 191.299 137.371 191.299ZM149.269 197.998C148.415 197.998 147.589 197.879 146.791 197.641C145.993 197.417 145.265 197.018 144.607 196.444L145.468 194.722C145.972 195.128 146.525 195.45 147.127 195.688C147.743 195.926 148.394 196.045 149.08 196.045C150.214 196.045 151.033 195.737 151.537 195.121C152.041 194.505 152.293 193.7 152.293 192.706V191.635C152.041 191.985 151.726 192.279 151.348 192.517C150.984 192.741 150.578 192.902 150.13 193C149.682 193.112 149.227 193.168 148.765 193.168C147.687 193.168 146.826 192.951 146.182 192.517C145.552 192.069 145.097 191.46 144.817 190.69C144.551 189.92 144.418 189.031 144.418 188.023V181.933H146.602V187.498C146.602 187.946 146.63 188.394 146.686 188.842C146.742 189.29 146.861 189.696 147.043 190.06C147.225 190.41 147.491 190.697 147.841 190.921C148.191 191.131 148.667 191.236 149.269 191.236C150.025 191.236 150.62 191.054 151.054 190.69C151.488 190.312 151.796 189.822 151.978 189.22C152.16 188.604 152.251 187.939 152.251 187.225V181.933H154.414V192.475C154.414 193.343 154.309 194.12 154.099 194.806C153.903 195.492 153.588 196.073 153.154 196.549C152.734 197.025 152.202 197.382 151.558 197.62C150.928 197.872 150.165 197.998 149.269 197.998Z" fill="#012129"/>
<mask id="mask0_449_610" style="mask-type:alpha" maskUnits="userSpaceOnUse" x="0" y="177" width="252" height="64">
<rect y="177" width="252" height="64" fill="url(#paint0_linear_449_610)"/>
</mask>
<g mask="url(#mask0_449_610)">
<g filter="url(#filter0_f_449_610)">
<rect x="-84" y="214" width="438" height="203" fill="#DDE7FF"/>
</g>
</g>
<defs>
<filter id="filter0_f_449_610" x="-178" y="120" width="626" height="391" filterUnits="userSpaceOnUse" color-interpolation-filters="sRGB">
<feFlood flood-opacity="0" result="BackgroundImageFix"/>
<feBlend mode="normal" in="SourceGraphic" in2="BackgroundImageFix" result="shape"/>
<feGaussianBlur stdDeviation="47" result="effect1_foregroundBlur_449_610"/>
</filter>
<linearGradient id="paint0_linear_449_610" x1="8.55001" y1="179.286" x2="19.8768" y2="260.784" gradientUnits="userSpaceOnUse">
<stop stop-color="#E1F1F4"/>
<stop offset="1" stop-color="#BBCCFC"/>
</linearGradient>
<clipPath id="clip0_449_610">
<rect width="41" height="41" fill="white" transform="translate(105 58)"/>
</clipPath>
</defs>
</svg>
