<svg width="371" height="185" viewBox="0 0 371 185" fill="none" xmlns="http://www.w3.org/2000/svg">
<path opacity="0.1" d="M249 82C249 58.4298 249 46.6447 256.322 39.3223C263.645 32 275.43 32 299 32H321C344.57 32 356.355 32 363.678 39.3223C371 46.6447 371 58.4298 371 82V104C371 127.57 371 139.355 363.678 146.678C356.355 154 344.57 154 321 154H299C275.43 154 263.645 154 256.322 146.678C249 139.355 249 127.57 249 104V82Z" fill="white"/>
<path opacity="0.1" d="M122 82C122 58.4298 122 46.6447 114.678 39.3223C107.355 32 95.5702 32 72 32H50C26.4298 32 14.6447 32 7.32233 39.3223C0 46.6447 0 58.4298 0 82V104C0 127.57 0 139.355 7.32233 146.678C14.6447 154 26.4298 154 50 154H72C95.5702 154 107.355 154 114.678 146.678C122 139.355 122 127.57 122 104V82Z" fill="white"/>
<path d="M209 74C209 50.4298 209 38.6447 216.322 31.3223C223.645 24 235.43 24 259 24H297C320.57 24 332.355 24 339.678 31.3223C347 38.6447 347 50.4298 347 74V112C347 135.57 347 147.355 339.678 154.678C332.355 162 320.57 162 297 162H259C235.43 162 223.645 162 216.322 154.678C209 147.355 209 135.57 209 112V74Z" fill="#E9F0FC"/>
<path d="M162 74C162 50.4298 162 38.6447 154.678 31.3223C147.355 24 135.57 24 112 24H74C50.4298 24 38.6447 24 31.3223 31.3223C24 38.6447 24 50.4298 24 74V112C24 135.57 24 147.355 31.3223 154.678C38.6447 162 50.4298 162 74 162H112C135.57 162 147.355 162 154.678 154.678C162 147.355 162 135.57 162 112V74Z" fill="#E9F0FC"/>
<path d="M152 63C152 39.4298 152 27.6447 159.322 20.3223C166.645 13 178.43 13 202 13H261C284.57 13 296.355 13 303.678 20.3223C311 27.6447 311 39.4298 311 63V122C311 145.57 311 157.355 303.678 164.678C296.355 172 284.57 172 261 172H202C178.43 172 166.645 172 159.322 164.678C152 157.355 152 145.57 152 122V63Z" fill="#F4F8FE"/>
<path d="M219 63C219 39.4298 219 27.6447 211.678 20.3223C204.355 13 192.57 13 169 13H110C86.4298 13 74.6447 13 67.3223 20.3223C60 27.6447 60 39.4298 60 63V122C60 145.57 60 157.355 67.3223 164.678C74.6447 172 86.4298 172 110 172H169C192.57 172 204.355 172 211.678 164.678C219 157.355 219 145.57 219 122V63Z" fill="#F4F8FE"/>
<path d="M93 50C93 26.4298 93 14.6447 100.322 7.32233C107.645 0 119.43 0 143 0H228C251.57 0 263.355 0 270.678 7.32233C278 14.6447 278 26.4298 278 50V135C278 158.57 278 170.355 270.678 177.678C263.355 185 251.57 185 228 185H143C119.43 185 107.645 185 100.322 177.678C93 170.355 93 158.57 93 135V50Z" fill="white"/>
<path d="M129.881 130V115.153H133.052L137.357 122.986L141.578 115.153H144.665V130H142.46V117.778L137.777 126.304H136.811L132.107 117.778V130H129.881ZM150.421 130.126C149.917 130.126 149.427 130.063 148.951 129.937C148.489 129.797 148.076 129.594 147.712 129.328C147.348 129.048 147.054 128.705 146.83 128.299C146.62 127.879 146.515 127.389 146.515 126.829C146.515 126.157 146.641 125.604 146.893 125.17C147.159 124.722 147.509 124.379 147.943 124.141C148.377 123.889 148.874 123.714 149.434 123.616C150.008 123.504 150.603 123.448 151.219 123.448H153.928C153.928 122.902 153.844 122.426 153.676 122.02C153.508 121.6 153.242 121.278 152.878 121.054C152.528 120.816 152.059 120.697 151.471 120.697C151.121 120.697 150.785 120.739 150.463 120.823C150.155 120.893 149.889 121.012 149.665 121.18C149.441 121.348 149.287 121.572 149.203 121.852H146.935C147.019 121.32 147.208 120.865 147.502 120.487C147.796 120.095 148.16 119.773 148.594 119.521C149.028 119.269 149.49 119.087 149.98 118.975C150.484 118.849 150.995 118.786 151.513 118.786C153.109 118.786 154.257 119.255 154.957 120.193C155.671 121.117 156.028 122.391 156.028 124.015V130H154.159L154.075 128.593C153.753 129.027 153.368 129.356 152.92 129.58C152.486 129.804 152.052 129.951 151.618 130.021C151.184 130.091 150.785 130.126 150.421 130.126ZM150.757 128.299C151.387 128.299 151.94 128.194 152.416 127.984C152.892 127.76 153.263 127.445 153.529 127.039C153.795 126.619 153.928 126.129 153.928 125.569V125.107H151.954C151.548 125.107 151.149 125.121 150.757 125.149C150.379 125.163 150.029 125.219 149.707 125.317C149.399 125.401 149.147 125.548 148.951 125.758C148.769 125.968 148.678 126.269 148.678 126.661C148.678 127.039 148.776 127.347 148.972 127.585C149.168 127.823 149.427 128.005 149.749 128.131C150.071 128.243 150.407 128.299 150.757 128.299ZM157.784 130V118.933H159.821L159.926 120.529C160.206 120.095 160.528 119.752 160.892 119.5C161.256 119.248 161.655 119.066 162.089 118.954C162.523 118.842 162.978 118.786 163.454 118.786C163.58 118.786 163.699 118.786 163.811 118.786C163.923 118.786 164.028 118.786 164.126 118.786V120.865H163.454C162.656 120.865 161.991 121.026 161.459 121.348C160.941 121.67 160.556 122.118 160.304 122.692C160.066 123.266 159.947 123.924 159.947 124.666V130H157.784ZM164.921 130V115.153H167.084V123.532H168.869L171.977 118.933H174.413L170.78 124.204L174.728 130H172.187L169.037 125.443H167.084V130H164.921ZM180.151 130.126C178.989 130.126 178.016 129.888 177.232 129.412C176.448 128.936 175.853 128.278 175.447 127.438C175.055 126.584 174.859 125.604 174.859 124.498C174.859 123.378 175.062 122.391 175.468 121.537C175.888 120.683 176.49 120.011 177.274 119.521C178.072 119.031 179.031 118.786 180.151 118.786C181.005 118.786 181.747 118.947 182.377 119.269C183.007 119.577 183.525 119.997 183.931 120.529C184.351 121.061 184.659 121.656 184.855 122.314C185.051 122.958 185.135 123.63 185.107 124.33C185.107 124.484 185.1 124.631 185.086 124.771C185.072 124.911 185.058 125.058 185.044 125.212H177.043C177.085 125.772 177.225 126.283 177.463 126.745C177.715 127.207 178.065 127.578 178.513 127.858C178.961 128.124 179.514 128.257 180.172 128.257C180.536 128.257 180.886 128.215 181.222 128.131C181.572 128.033 181.88 127.886 182.146 127.69C182.426 127.48 182.622 127.214 182.734 126.892H184.918C184.736 127.634 184.407 128.25 183.931 128.74C183.469 129.216 182.902 129.566 182.23 129.79C181.572 130.014 180.879 130.126 180.151 130.126ZM177.085 123.49H182.965C182.951 122.944 182.825 122.461 182.587 122.041C182.349 121.607 182.02 121.271 181.6 121.033C181.18 120.781 180.676 120.655 180.088 120.655C179.444 120.655 178.905 120.788 178.471 121.054C178.051 121.32 177.722 121.67 177.484 122.104C177.26 122.524 177.127 122.986 177.085 123.49ZM191.159 130C190.291 130 189.584 129.881 189.038 129.643C188.492 129.391 188.086 128.999 187.82 128.467C187.568 127.935 187.442 127.242 187.442 126.388V120.865H185.699V118.933H187.442V115.741H189.605V118.933H192.398V120.865H189.605V126.115C189.605 126.773 189.724 127.27 189.962 127.606C190.2 127.928 190.697 128.089 191.453 128.089H192.314V130H191.159ZM193.409 134.032V118.933H195.467L195.572 120.508C195.964 119.934 196.475 119.507 197.105 119.227C197.735 118.933 198.421 118.786 199.163 118.786C200.269 118.786 201.179 119.038 201.893 119.542C202.607 120.032 203.139 120.711 203.489 121.579C203.839 122.433 204.014 123.392 204.014 124.456C204.014 125.548 203.832 126.521 203.468 127.375C203.118 128.229 202.572 128.901 201.83 129.391C201.102 129.881 200.178 130.126 199.058 130.126C198.526 130.126 198.036 130.07 197.588 129.958C197.154 129.846 196.769 129.685 196.433 129.475C196.111 129.251 195.824 128.992 195.572 128.698V134.032H193.409ZM198.785 128.194C199.541 128.194 200.143 128.026 200.591 127.69C201.039 127.34 201.361 126.885 201.557 126.325C201.753 125.765 201.851 125.156 201.851 124.498C201.851 123.812 201.746 123.189 201.536 122.629C201.34 122.055 201.011 121.6 200.549 121.264C200.101 120.914 199.499 120.739 198.743 120.739C198.057 120.739 197.476 120.914 197 121.264C196.524 121.6 196.16 122.055 195.908 122.629C195.67 123.203 195.551 123.826 195.551 124.498C195.551 125.184 195.663 125.814 195.887 126.388C196.125 126.948 196.482 127.389 196.958 127.711C197.448 128.033 198.057 128.194 198.785 128.194ZM205.407 130V115.153H207.57V130H205.407ZM212.935 130.126C212.431 130.126 211.941 130.063 211.465 129.937C211.003 129.797 210.59 129.594 210.226 129.328C209.862 129.048 209.568 128.705 209.344 128.299C209.134 127.879 209.029 127.389 209.029 126.829C209.029 126.157 209.155 125.604 209.407 125.17C209.673 124.722 210.023 124.379 210.457 124.141C210.891 123.889 211.388 123.714 211.948 123.616C212.522 123.504 213.117 123.448 213.733 123.448H216.442C216.442 122.902 216.358 122.426 216.19 122.02C216.022 121.6 215.756 121.278 215.392 121.054C215.042 120.816 214.573 120.697 213.985 120.697C213.635 120.697 213.299 120.739 212.977 120.823C212.669 120.893 212.403 121.012 212.179 121.18C211.955 121.348 211.801 121.572 211.717 121.852H209.449C209.533 121.32 209.722 120.865 210.016 120.487C210.31 120.095 210.674 119.773 211.108 119.521C211.542 119.269 212.004 119.087 212.494 118.975C212.998 118.849 213.509 118.786 214.027 118.786C215.623 118.786 216.771 119.255 217.471 120.193C218.185 121.117 218.542 122.391 218.542 124.015V130H216.673L216.589 128.593C216.267 129.027 215.882 129.356 215.434 129.58C215 129.804 214.566 129.951 214.132 130.021C213.698 130.091 213.299 130.126 212.935 130.126ZM213.271 128.299C213.901 128.299 214.454 128.194 214.93 127.984C215.406 127.76 215.777 127.445 216.043 127.039C216.309 126.619 216.442 126.129 216.442 125.569V125.107H214.468C214.062 125.107 213.663 125.121 213.271 125.149C212.893 125.163 212.543 125.219 212.221 125.317C211.913 125.401 211.661 125.548 211.465 125.758C211.283 125.968 211.192 126.269 211.192 126.661C211.192 127.039 211.29 127.347 211.486 127.585C211.682 127.823 211.941 128.005 212.263 128.131C212.585 128.243 212.921 128.299 213.271 128.299ZM225.106 130.126C223.944 130.126 222.971 129.888 222.187 129.412C221.417 128.936 220.836 128.278 220.444 127.438C220.066 126.584 219.877 125.604 219.877 124.498C219.877 123.406 220.073 122.433 220.465 121.579C220.871 120.711 221.473 120.032 222.271 119.542C223.083 119.038 224.084 118.786 225.274 118.786C226.086 118.786 226.807 118.926 227.437 119.206C228.067 119.472 228.578 119.871 228.97 120.403C229.376 120.921 229.642 121.572 229.768 122.356H227.605C227.423 121.782 227.115 121.369 226.681 121.117C226.261 120.865 225.764 120.739 225.19 120.739C224.42 120.739 223.804 120.921 223.342 121.285C222.894 121.649 222.565 122.118 222.355 122.692C222.145 123.266 222.04 123.868 222.04 124.498C222.04 125.156 222.145 125.765 222.355 126.325C222.579 126.885 222.915 127.34 223.363 127.69C223.825 128.026 224.427 128.194 225.169 128.194C225.729 128.194 226.247 128.075 226.723 127.837C227.199 127.585 227.507 127.165 227.647 126.577H229.873C229.747 127.389 229.453 128.061 228.991 128.593C228.529 129.111 227.955 129.496 227.269 129.748C226.597 130 225.876 130.126 225.106 130.126ZM235.998 130.126C234.836 130.126 233.863 129.888 233.079 129.412C232.295 128.936 231.7 128.278 231.294 127.438C230.902 126.584 230.706 125.604 230.706 124.498C230.706 123.378 230.909 122.391 231.315 121.537C231.735 120.683 232.337 120.011 233.121 119.521C233.919 119.031 234.878 118.786 235.998 118.786C236.852 118.786 237.594 118.947 238.224 119.269C238.854 119.577 239.372 119.997 239.778 120.529C240.198 121.061 240.506 121.656 240.702 122.314C240.898 122.958 240.982 123.63 240.954 124.33C240.954 124.484 240.947 124.631 240.933 124.771C240.919 124.911 240.905 125.058 240.891 125.212H232.89C232.932 125.772 233.072 126.283 233.31 126.745C233.562 127.207 233.912 127.578 234.36 127.858C234.808 128.124 235.361 128.257 236.019 128.257C236.383 128.257 236.733 128.215 237.069 128.131C237.419 128.033 237.727 127.886 237.993 127.69C238.273 127.48 238.469 127.214 238.581 126.892H240.765C240.583 127.634 240.254 128.25 239.778 128.74C239.316 129.216 238.749 129.566 238.077 129.79C237.419 130.014 236.726 130.126 235.998 130.126ZM232.932 123.49H238.812C238.798 122.944 238.672 122.461 238.434 122.041C238.196 121.607 237.867 121.271 237.447 121.033C237.027 120.781 236.523 120.655 235.935 120.655C235.291 120.655 234.752 120.788 234.318 121.054C233.898 121.32 233.569 121.67 233.331 122.104C233.107 122.524 232.974 122.986 232.932 123.49ZM153.211 157.126C152.049 157.126 151.076 156.888 150.292 156.412C149.522 155.936 148.941 155.278 148.549 154.438C148.171 153.584 147.982 152.604 147.982 151.498C147.982 150.406 148.178 149.433 148.57 148.579C148.976 147.711 149.578 147.032 150.376 146.542C151.188 146.038 152.189 145.786 153.379 145.786C154.191 145.786 154.912 145.926 155.542 146.206C156.172 146.472 156.683 146.871 157.075 147.403C157.481 147.921 157.747 148.572 157.873 149.356H155.71C155.528 148.782 155.22 148.369 154.786 148.117C154.366 147.865 153.869 147.739 153.295 147.739C152.525 147.739 151.909 147.921 151.447 148.285C150.999 148.649 150.67 149.118 150.46 149.692C150.25 150.266 150.145 150.868 150.145 151.498C150.145 152.156 150.25 152.765 150.46 153.325C150.684 153.885 151.02 154.34 151.468 154.69C151.93 155.026 152.532 155.194 153.274 155.194C153.834 155.194 154.352 155.075 154.828 154.837C155.304 154.585 155.612 154.165 155.752 153.577H157.978C157.852 154.389 157.558 155.061 157.096 155.593C156.634 156.111 156.06 156.496 155.374 156.748C154.702 157 153.981 157.126 153.211 157.126ZM164.166 157.126C163.018 157.126 162.045 156.895 161.247 156.433C160.449 155.957 159.84 155.292 159.42 154.438C159.014 153.584 158.811 152.597 158.811 151.477C158.811 150.343 159.021 149.356 159.441 148.516C159.861 147.662 160.47 146.997 161.268 146.521C162.066 146.031 163.039 145.786 164.187 145.786C165.335 145.786 166.308 146.031 167.106 146.521C167.904 146.997 168.506 147.662 168.912 148.516C169.318 149.37 169.521 150.364 169.521 151.498C169.521 152.604 169.311 153.584 168.891 154.438C168.485 155.292 167.883 155.957 167.085 156.433C166.301 156.895 165.328 157.126 164.166 157.126ZM164.166 155.194C164.922 155.194 165.531 155.026 165.993 154.69C166.469 154.354 166.819 153.906 167.043 153.346C167.267 152.772 167.379 152.149 167.379 151.477C167.379 150.805 167.267 150.189 167.043 149.629C166.819 149.069 166.469 148.621 165.993 148.285C165.531 147.935 164.922 147.76 164.166 147.76C163.424 147.76 162.815 147.935 162.339 148.285C161.863 148.621 161.513 149.069 161.289 149.629C161.079 150.189 160.974 150.805 160.974 151.477C160.974 152.163 161.079 152.786 161.289 153.346C161.513 153.906 161.863 154.354 162.339 154.69C162.815 155.026 163.424 155.194 164.166 155.194ZM170.9 157V145.933H172.958L173.063 147.487C173.343 147.081 173.679 146.759 174.071 146.521C174.463 146.269 174.883 146.087 175.331 145.975C175.779 145.849 176.213 145.786 176.633 145.786C177.697 145.786 178.53 146.017 179.132 146.479C179.748 146.927 180.182 147.536 180.434 148.306C180.7 149.062 180.833 149.923 180.833 150.889V157H178.649V151.33C178.649 150.882 178.621 150.441 178.565 150.007C178.509 149.573 178.39 149.188 178.208 148.852C178.04 148.502 177.795 148.229 177.473 148.033C177.151 147.823 176.717 147.718 176.171 147.718C175.499 147.718 174.932 147.9 174.47 148.264C174.008 148.628 173.658 149.118 173.42 149.734C173.182 150.35 173.063 151.043 173.063 151.813V157H170.9ZM182.57 157V145.933H184.628L184.733 147.487C185.013 147.081 185.349 146.759 185.741 146.521C186.133 146.269 186.553 146.087 187.001 145.975C187.449 145.849 187.883 145.786 188.303 145.786C189.367 145.786 190.2 146.017 190.802 146.479C191.418 146.927 191.852 147.536 192.104 148.306C192.37 149.062 192.503 149.923 192.503 150.889V157H190.319V151.33C190.319 150.882 190.291 150.441 190.235 150.007C190.179 149.573 190.06 149.188 189.878 148.852C189.71 148.502 189.465 148.229 189.143 148.033C188.821 147.823 188.387 147.718 187.841 147.718C187.169 147.718 186.602 147.9 186.14 148.264C185.678 148.628 185.328 149.118 185.09 149.734C184.852 150.35 184.733 151.043 184.733 151.813V157H182.57ZM199.112 157.126C197.95 157.126 196.977 156.888 196.193 156.412C195.409 155.936 194.814 155.278 194.408 154.438C194.016 153.584 193.82 152.604 193.82 151.498C193.82 150.378 194.023 149.391 194.429 148.537C194.849 147.683 195.451 147.011 196.235 146.521C197.033 146.031 197.992 145.786 199.112 145.786C199.966 145.786 200.708 145.947 201.338 146.269C201.968 146.577 202.486 146.997 202.892 147.529C203.312 148.061 203.62 148.656 203.816 149.314C204.012 149.958 204.096 150.63 204.068 151.33C204.068 151.484 204.061 151.631 204.047 151.771C204.033 151.911 204.019 152.058 204.005 152.212H196.004C196.046 152.772 196.186 153.283 196.424 153.745C196.676 154.207 197.026 154.578 197.474 154.858C197.922 155.124 198.475 155.257 199.133 155.257C199.497 155.257 199.847 155.215 200.183 155.131C200.533 155.033 200.841 154.886 201.107 154.69C201.387 154.48 201.583 154.214 201.695 153.892H203.879C203.697 154.634 203.368 155.25 202.892 155.74C202.43 156.216 201.863 156.566 201.191 156.79C200.533 157.014 199.84 157.126 199.112 157.126ZM196.046 150.49H201.926C201.912 149.944 201.786 149.461 201.548 149.041C201.31 148.607 200.981 148.271 200.561 148.033C200.141 147.781 199.637 147.655 199.049 147.655C198.405 147.655 197.866 147.788 197.432 148.054C197.012 148.32 196.683 148.67 196.445 149.104C196.221 149.524 196.088 149.986 196.046 150.49ZM210.473 157.126C209.311 157.126 208.338 156.888 207.554 156.412C206.784 155.936 206.203 155.278 205.811 154.438C205.433 153.584 205.244 152.604 205.244 151.498C205.244 150.406 205.44 149.433 205.832 148.579C206.238 147.711 206.84 147.032 207.638 146.542C208.45 146.038 209.451 145.786 210.641 145.786C211.453 145.786 212.174 145.926 212.804 146.206C213.434 146.472 213.945 146.871 214.337 147.403C214.743 147.921 215.009 148.572 215.135 149.356H212.972C212.79 148.782 212.482 148.369 212.048 148.117C211.628 147.865 211.131 147.739 210.557 147.739C209.787 147.739 209.171 147.921 208.709 148.285C208.261 148.649 207.932 149.118 207.722 149.692C207.512 150.266 207.407 150.868 207.407 151.498C207.407 152.156 207.512 152.765 207.722 153.325C207.946 153.885 208.282 154.34 208.73 154.69C209.192 155.026 209.794 155.194 210.536 155.194C211.096 155.194 211.614 155.075 212.09 154.837C212.566 154.585 212.874 154.165 213.014 153.577H215.24C215.114 154.389 214.82 155.061 214.358 155.593C213.896 156.111 213.322 156.496 212.636 156.748C211.964 157 211.243 157.126 210.473 157.126ZM221.154 157C220.286 157 219.579 156.881 219.033 156.643C218.487 156.391 218.081 155.999 217.815 155.467C217.563 154.935 217.437 154.242 217.437 153.388V147.865H215.694V145.933H217.437V142.741H219.6V145.933H222.393V147.865H219.6V153.115C219.6 153.773 219.719 154.27 219.957 154.606C220.195 154.928 220.692 155.089 221.448 155.089H222.309V157H221.154Z" fill="#012129"/>
<path d="M207.538 53.2366C205.113 53.2366 202.923 51.5486 202.389 49.0831C202.092 47.7075 202.346 46.298 203.109 45.1137C203.872 43.9294 205.047 43.1132 206.423 42.8153C208.681 42.3261 210.121 40.0895 209.632 37.8299C209.142 35.5715 206.905 34.1317 204.647 34.6221C203.552 34.8595 202.616 35.5085 202.01 36.4506C201.405 37.3927 201.201 38.5129 201.439 39.6075C201.616 40.4249 201.097 41.2302 200.28 41.4082C199.463 41.585 198.657 41.0667 198.479 40.2493C198.07 38.3651 198.42 36.4337 199.464 34.8122C200.508 33.1908 202.121 32.0731 204.005 31.6638C205.889 31.2545 207.82 31.6045 209.442 32.6483C211.063 33.6921 212.181 35.3039 212.59 37.1893C213.434 41.08 210.956 44.9308 207.065 45.7749C206.48 45.902 205.979 46.2495 205.654 46.7533C205.33 47.257 205.222 47.8565 205.348 48.4425C205.61 49.6511 206.806 50.4212 208.014 50.1584C208.83 49.9816 209.637 50.4999 209.814 51.3173C209.99 52.1347 209.472 52.94 208.655 53.118C208.281 53.1991 207.905 53.2379 207.537 53.2379L207.538 53.2366Z" fill="url(#paint0_linear_17_404)"/>
<path d="M162.462 53.2369C162.093 53.2369 161.72 53.1981 161.344 53.117C160.527 52.9402 160.009 52.1337 160.185 51.3163C160.362 50.499 161.167 49.9807 161.985 50.1575C163.193 50.4202 164.39 49.6501 164.651 48.4416C164.778 47.8567 164.669 47.2561 164.345 46.7523C164.02 46.2486 163.52 45.901 162.934 45.7739C159.045 44.9298 156.566 41.0791 157.409 37.1883C157.817 35.3041 158.936 33.6911 160.557 32.6473C162.179 31.6035 164.109 31.2535 165.994 31.6628C167.878 32.0709 169.491 33.1898 170.535 34.8113C171.579 36.4327 171.928 38.3641 171.52 40.2484C171.343 41.0657 170.538 41.584 169.719 41.4072C168.902 41.2304 168.383 40.424 168.56 39.6066C168.798 38.5119 168.594 37.3918 167.989 36.4497C167.383 35.5088 166.446 34.8585 165.352 34.6211C163.094 34.1307 160.857 35.5705 160.367 37.8289C159.878 40.0873 161.316 42.3239 163.576 42.8143C164.952 43.1122 166.129 43.9284 166.89 45.1127C167.652 46.297 167.907 47.7065 167.61 49.0822C167.076 51.5476 164.886 53.2357 162.461 53.2357L162.462 53.2369Z" fill="url(#paint1_linear_17_404)"/>
<path d="M184.999 76.1902C188.138 76.1902 190.682 72.3491 190.682 67.6107C190.682 62.8724 188.138 59.0312 184.999 59.0312C181.861 59.0312 179.316 62.8724 179.316 67.6107C179.316 72.3491 181.861 76.1902 184.999 76.1902Z" fill="url(#paint2_linear_17_404)"/>
<path d="M190.242 69.4248H179.76C176.694 69.4248 174.199 71.9193 174.199 74.9854V76.2182C174.199 77.0537 174.877 77.7318 175.713 77.7318H194.287C195.123 77.7318 195.801 77.0537 195.801 76.2182V74.9854C195.801 71.9193 193.307 69.4248 190.241 69.4248H190.242Z" fill="url(#paint3_linear_17_404)"/>
<path d="M201.176 28.6766C200.203 27.6061 198.815 26.9922 197.368 26.9922H172.633C171.186 26.9922 169.798 27.6061 168.825 28.6766C167.851 29.7471 167.372 31.1881 167.51 32.6279L169.319 51.5439C169.693 55.4529 171.498 59.0602 174.405 61.7013C177.311 64.3423 181.073 65.7967 185 65.7967C188.927 65.7967 192.69 64.3423 195.596 61.7013C198.502 59.0602 200.308 55.4529 200.682 51.5439L202.491 32.6279C202.629 31.1869 202.15 29.7471 201.176 28.6766Z" fill="url(#paint4_linear_17_404)"/>
<path d="M194.964 74.7032H175.036C172.746 74.7032 170.883 76.5656 170.883 78.8567C170.883 81.1478 172.745 83.0102 175.036 83.0102H194.964C197.253 83.0102 199.117 81.1478 199.117 78.8567C199.117 76.5656 197.255 74.7032 194.964 74.7032Z" fill="url(#paint5_linear_17_404)"/>
<path d="M191.385 44.1014L193.324 40.8173C193.601 40.3475 193.604 39.7638 193.331 39.2915C193.057 38.8193 192.552 38.525 192.005 38.5347L188.192 38.5722L186.317 35.2519C186.048 34.776 185.544 34.4829 184.998 34.4829C184.452 34.4829 183.948 34.7772 183.68 35.2519L181.805 38.5722L177.992 38.5347C177.992 38.5347 177.982 38.5347 177.977 38.5347C177.437 38.5347 176.937 38.8229 176.666 39.2915C176.393 39.7638 176.396 40.3475 176.673 40.8173L178.612 44.1014L176.673 47.3854C176.396 47.8553 176.392 48.439 176.666 48.9112C176.938 49.3835 177.442 49.6753 177.992 49.6681L181.805 49.6305L183.68 52.9509C183.948 53.4268 184.452 53.7199 184.998 53.7199C185.544 53.7199 186.048 53.4256 186.317 52.9509L188.192 49.6305L192.005 49.6681C192.005 49.6681 192.015 49.6681 192.019 49.6681C192.559 49.6681 193.06 49.3799 193.331 48.9112C193.603 48.439 193.601 47.8553 193.324 47.3854L191.385 44.1014Z" fill="url(#paint6_linear_17_404)"/>
<defs>
<linearGradient id="paint0_linear_17_404" x1="205.533" y1="33.1859" x2="205.533" y2="46.6467" gradientUnits="userSpaceOnUse">
<stop stop-color="#FF9500"/>
<stop offset="1" stop-color="#FFCC1E"/>
</linearGradient>
<linearGradient id="paint1_linear_17_404" x1="164.467" y1="33.1862" x2="164.467" y2="46.647" gradientUnits="userSpaceOnUse">
<stop stop-color="#FF9500"/>
<stop offset="1" stop-color="#FFCC1E"/>
</linearGradient>
<linearGradient id="paint2_linear_17_404" x1="184.999" y1="65.2518" x2="184.999" y2="71.2436" gradientUnits="userSpaceOnUse">
<stop stop-color="#FF9500"/>
<stop offset="1" stop-color="#FFCC1E"/>
</linearGradient>
<linearGradient id="paint3_linear_17_404" x1="185.001" y1="75.0048" x2="185.001" y2="70.5934" gradientUnits="userSpaceOnUse">
<stop stop-color="#FF9500"/>
<stop offset="1" stop-color="#FFCC1E"/>
</linearGradient>
<linearGradient id="paint4_linear_17_404" x1="185" y1="65.7204" x2="185" y2="29.2034" gradientUnits="userSpaceOnUse">
<stop stop-color="#FFBD00"/>
<stop offset="1" stop-color="#FFF065"/>
</linearGradient>
<linearGradient id="paint5_linear_17_404" x1="185" y1="82.8358" x2="185" y2="76.6043" gradientUnits="userSpaceOnUse">
<stop stop-color="#333333"/>
<stop offset="1" stop-color="#666666"/>
</linearGradient>
<linearGradient id="paint6_linear_17_404" x1="185" y1="53.4317" x2="185" y2="37.2778" gradientUnits="userSpaceOnUse">
<stop stop-color="#FF9500"/>
<stop offset="1" stop-color="#FFCC1E"/>
</linearGradient>
</defs>
</svg>
