<svg width="345" height="135" viewBox="0 0 345 135" fill="none" xmlns="http://www.w3.org/2000/svg">
<path d="M38 88.5C38 68.3137 38 58.2206 43.4892 51.3689C44.6362 49.9373 45.9373 48.6362 47.3689 47.4892C54.2206 42 64.3137 42 84.5 42H260.5C280.686 42 290.779 42 297.631 47.4892C299.063 48.6362 300.364 49.9373 301.511 51.3689C307 58.2206 307 68.3137 307 88.5C307 108.686 307 118.779 301.511 125.631C300.364 127.063 299.063 128.364 297.631 129.511C290.779 135 280.686 135 260.5 135H84.5C64.3138 135 54.2206 135 47.3689 129.511C45.9373 128.364 44.6362 127.063 43.4892 125.631C38 118.779 38 108.686 38 88.5Z" fill="#E9F0FC"/>
<path d="M17 69.5C17 49.3137 17 39.2206 22.4892 32.3689C23.6362 30.9373 24.9373 29.6362 26.3689 28.4892C33.2206 23 43.3137 23 63.5 23H281.5C301.686 23 311.779 23 318.631 28.4892C320.063 29.6362 321.364 30.9373 322.511 32.3689C328 39.2206 328 49.3137 328 69.5C328 89.6862 328 99.7794 322.511 106.631C321.364 108.063 320.063 109.364 318.631 110.511C311.779 116 301.686 116 281.5 116H63.5C43.3137 116 33.2206 116 26.3689 110.511C24.9373 109.364 23.6362 108.063 22.4892 106.631C17 99.7794 17 89.6862 17 69.5Z" fill="#F4F8FE"/>
<path d="M0 46.5C0 26.3137 0 16.2206 5.48924 9.36893C6.63621 7.93728 7.93728 6.63621 9.36893 5.48924C16.2206 0 26.3137 0 46.5 0H298.5C318.686 0 328.779 0 335.631 5.48924C337.063 6.63621 338.364 7.93728 339.511 9.36893C345 16.2206 345 26.3137 345 46.5C345 66.6862 345 76.7794 339.511 83.6311C338.364 85.0627 337.063 86.3638 335.631 87.5108C328.779 93 318.686 93 298.5 93H46.5C26.3137 93 16.2206 93 9.36893 87.5108C7.93728 86.3638 6.63621 85.0627 5.48924 83.6311C0 76.7794 0 66.6862 0 46.5Z" fill="white"/>
<circle cx="43.5" cy="46.5" r="26.5" fill="#E9EFFE"/>
<path d="M42.9994 54.1132L37.5303 56.9878C36.3518 57.6076 34.9752 56.6071 35.1998 55.2946L36.244 49.2041L31.8192 44.8901C30.8652 43.9611 31.3918 42.3423 32.7087 42.1498L38.8239 41.2616L41.5584 35.7196C42.1476 34.5251 43.8497 34.5251 44.4388 35.7196L47.1734 41.2616L53.2887 42.1498C54.6056 42.3409 55.1321 43.9596 54.1784 44.8901L49.7535 49.2041L50.7977 55.2946C51.0223 56.6072 49.6455 57.6076 48.4672 56.9878L42.9994 54.1132Z" fill="url(#paint0_linear_17_405)"/>
<path d="M83.494 53V40.274H85.708L92.098 50.21V40.274H93.988V53H91.828L85.402 43.118V53H83.494ZM100.792 53.108C99.7964 53.108 98.9624 52.904 98.2904 52.496C97.6184 52.088 97.1084 51.524 96.7604 50.804C96.4244 50.072 96.2564 49.232 96.2564 48.284C96.2564 47.324 96.4304 46.478 96.7784 45.746C97.1384 45.014 97.6544 44.438 98.3264 44.018C99.0104 43.598 99.8324 43.388 100.792 43.388C101.524 43.388 102.16 43.526 102.7 43.802C103.24 44.066 103.684 44.426 104.032 44.882C104.392 45.338 104.656 45.848 104.824 46.412C104.992 46.964 105.064 47.54 105.04 48.14C105.04 48.272 105.034 48.398 105.022 48.518C105.01 48.638 104.998 48.764 104.986 48.896H98.1284C98.1644 49.376 98.2844 49.814 98.4884 50.21C98.7044 50.606 99.0044 50.924 99.3884 51.164C99.7724 51.392 100.246 51.506 100.81 51.506C101.122 51.506 101.422 51.47 101.71 51.398C102.01 51.314 102.274 51.188 102.502 51.02C102.742 50.84 102.91 50.612 103.006 50.336H104.878C104.722 50.972 104.44 51.5 104.032 51.92C103.636 52.328 103.15 52.628 102.574 52.82C102.01 53.012 101.416 53.108 100.792 53.108ZM98.1644 47.42H103.204C103.192 46.952 103.084 46.538 102.88 46.178C102.676 45.806 102.394 45.518 102.034 45.314C101.674 45.098 101.242 44.99 100.738 44.99C100.186 44.99 99.7244 45.104 99.3524 45.332C98.9924 45.56 98.7104 45.86 98.5064 46.232C98.3144 46.592 98.2004 46.988 98.1644 47.42ZM108.932 53L105.98 43.514H108.05L110.138 51.056L112.334 43.514H114.656L116.852 51.056L118.904 43.514H120.974L118.022 53H115.664L113.468 45.746L111.29 53H108.932ZM128.084 53V45.17H126.572V43.514H128.084V42.56C128.084 41.84 128.186 41.258 128.39 40.814C128.606 40.358 128.936 40.022 129.38 39.806C129.836 39.59 130.43 39.482 131.162 39.482H132.404V41.12H131.378C131.006 41.12 130.712 41.186 130.496 41.318C130.292 41.438 130.148 41.624 130.064 41.876C129.98 42.116 129.938 42.41 129.938 42.758V43.514H132.404V45.17H129.938V53H128.084ZM137.968 53.108C136.636 53.108 135.616 52.76 134.908 52.064C134.212 51.356 133.864 50.282 133.864 48.842V43.514H135.718V48.734C135.718 49.298 135.796 49.784 135.952 50.192C136.12 50.6 136.372 50.912 136.708 51.128C137.044 51.344 137.47 51.452 137.986 51.452C138.526 51.452 138.958 51.344 139.282 51.128C139.618 50.9 139.858 50.582 140.002 50.174C140.158 49.766 140.236 49.286 140.236 48.734V43.514H142.09V48.842C142.09 50.306 141.73 51.386 141.01 52.082C140.302 52.766 139.288 53.108 137.968 53.108ZM144.323 53V43.514H146.087L146.177 44.846C146.417 44.498 146.705 44.222 147.041 44.018C147.377 43.802 147.737 43.646 148.121 43.55C148.505 43.442 148.877 43.388 149.237 43.388C150.149 43.388 150.863 43.586 151.379 43.982C151.907 44.366 152.279 44.888 152.495 45.548C152.723 46.196 152.837 46.934 152.837 47.762V53H150.965V48.14C150.965 47.756 150.941 47.378 150.893 47.006C150.845 46.634 150.743 46.304 150.587 46.016C150.443 45.716 150.233 45.482 149.957 45.314C149.681 45.134 149.309 45.044 148.841 45.044C148.265 45.044 147.779 45.2 147.383 45.512C146.987 45.824 146.687 46.244 146.483 46.772C146.279 47.3 146.177 47.894 146.177 48.554V53H144.323ZM158.88 53.108C157.932 53.108 157.146 52.898 156.522 52.478C155.91 52.046 155.448 51.464 155.136 50.732C154.836 50 154.686 49.178 154.686 48.266C154.686 47.342 154.842 46.514 155.154 45.782C155.466 45.038 155.94 44.456 156.576 44.036C157.212 43.604 158.016 43.388 158.988 43.388C159.348 43.388 159.708 43.43 160.068 43.514C160.44 43.598 160.782 43.73 161.094 43.91C161.418 44.078 161.694 44.306 161.922 44.594V40.274H163.776V53H161.994L161.922 51.704C161.706 52.028 161.436 52.298 161.112 52.514C160.8 52.718 160.452 52.868 160.068 52.964C159.684 53.06 159.288 53.108 158.88 53.108ZM159.186 51.452C159.798 51.452 160.302 51.302 160.698 51.002C161.106 50.702 161.412 50.306 161.616 49.814C161.82 49.322 161.922 48.788 161.922 48.212C161.922 47.624 161.82 47.096 161.616 46.628C161.424 46.148 161.124 45.77 160.716 45.494C160.32 45.206 159.81 45.062 159.186 45.062C158.538 45.062 158.022 45.212 157.638 45.512C157.254 45.8 156.972 46.19 156.792 46.682C156.624 47.174 156.54 47.714 156.54 48.302C156.54 48.734 156.588 49.142 156.684 49.526C156.78 49.898 156.93 50.234 157.134 50.534C157.35 50.822 157.626 51.05 157.962 51.218C158.298 51.374 158.706 51.452 159.186 51.452ZM169.596 53.108C169.152 53.108 168.708 53.066 168.264 52.982C167.82 52.898 167.406 52.748 167.022 52.532C166.638 52.316 166.314 52.028 166.05 51.668C165.786 51.296 165.618 50.84 165.546 50.3H167.436C167.532 50.588 167.7 50.822 167.94 51.002C168.192 51.182 168.468 51.314 168.768 51.398C169.08 51.482 169.386 51.524 169.686 51.524C169.866 51.524 170.064 51.512 170.28 51.488C170.508 51.464 170.724 51.41 170.928 51.326C171.132 51.242 171.3 51.122 171.432 50.966C171.564 50.798 171.63 50.576 171.63 50.3C171.63 50.084 171.57 49.904 171.45 49.76C171.342 49.616 171.186 49.502 170.982 49.418C170.79 49.322 170.556 49.25 170.28 49.202C169.74 49.082 169.158 48.968 168.534 48.86C167.922 48.74 167.382 48.536 166.914 48.248C166.746 48.14 166.596 48.02 166.464 47.888C166.332 47.744 166.218 47.582 166.122 47.402C166.026 47.222 165.954 47.03 165.906 46.826C165.858 46.622 165.834 46.4 165.834 46.16C165.834 45.668 165.93 45.248 166.122 44.9C166.326 44.552 166.602 44.27 166.95 44.054C167.298 43.826 167.694 43.658 168.138 43.55C168.582 43.442 169.05 43.388 169.542 43.388C170.178 43.388 170.754 43.49 171.27 43.694C171.786 43.898 172.212 44.198 172.548 44.594C172.884 44.99 173.082 45.488 173.142 46.088H171.396C171.324 45.764 171.114 45.506 170.766 45.314C170.43 45.11 170.004 45.008 169.488 45.008C169.308 45.008 169.11 45.02 168.894 45.044C168.69 45.068 168.492 45.122 168.3 45.206C168.108 45.29 167.952 45.41 167.832 45.566C167.712 45.71 167.652 45.902 167.652 46.142C167.652 46.37 167.706 46.562 167.814 46.718C167.934 46.874 168.102 47 168.318 47.096C168.546 47.192 168.804 47.27 169.092 47.33C169.5 47.426 169.938 47.516 170.406 47.6C170.886 47.684 171.276 47.774 171.576 47.87C171.972 47.978 172.308 48.134 172.584 48.338C172.872 48.542 173.088 48.8 173.232 49.112C173.388 49.424 173.466 49.802 173.466 50.246C173.466 50.822 173.352 51.296 173.124 51.668C172.896 52.028 172.59 52.316 172.206 52.532C171.834 52.748 171.414 52.898 170.946 52.982C170.49 53.066 170.04 53.108 169.596 53.108ZM180.165 53V43.514H181.911L182.001 44.882C182.241 44.51 182.517 44.216 182.829 44C183.141 43.784 183.483 43.628 183.855 43.532C184.227 43.436 184.617 43.388 185.025 43.388C185.133 43.388 185.235 43.388 185.331 43.388C185.427 43.388 185.517 43.388 185.601 43.388V45.17H185.025C184.341 45.17 183.771 45.308 183.315 45.584C182.871 45.86 182.541 46.244 182.325 46.736C182.121 47.228 182.019 47.792 182.019 48.428V53H180.165ZM191.003 53.108C190.007 53.108 189.173 52.904 188.501 52.496C187.829 52.088 187.319 51.524 186.971 50.804C186.635 50.072 186.467 49.232 186.467 48.284C186.467 47.324 186.641 46.478 186.989 45.746C187.349 45.014 187.865 44.438 188.537 44.018C189.221 43.598 190.043 43.388 191.003 43.388C191.735 43.388 192.371 43.526 192.911 43.802C193.451 44.066 193.895 44.426 194.243 44.882C194.603 45.338 194.867 45.848 195.035 46.412C195.203 46.964 195.275 47.54 195.251 48.14C195.251 48.272 195.245 48.398 195.233 48.518C195.221 48.638 195.209 48.764 195.197 48.896H188.339C188.375 49.376 188.495 49.814 188.699 50.21C188.915 50.606 189.215 50.924 189.599 51.164C189.983 51.392 190.457 51.506 191.021 51.506C191.333 51.506 191.633 51.47 191.921 51.398C192.221 51.314 192.485 51.188 192.713 51.02C192.953 50.84 193.121 50.612 193.217 50.336H195.089C194.933 50.972 194.651 51.5 194.243 51.92C193.847 52.328 193.361 52.628 192.785 52.82C192.221 53.012 191.627 53.108 191.003 53.108ZM188.375 47.42H193.415C193.403 46.952 193.295 46.538 193.091 46.178C192.887 45.806 192.605 45.518 192.245 45.314C191.885 45.098 191.453 44.99 190.949 44.99C190.397 44.99 189.935 45.104 189.563 45.332C189.203 45.56 188.921 45.86 188.717 46.232C188.525 46.592 188.411 46.988 188.375 47.42ZM201.461 53.108C200.465 53.108 199.631 52.904 198.959 52.496C198.299 52.088 197.801 51.524 197.465 50.804C197.141 50.072 196.979 49.232 196.979 48.284C196.979 47.348 197.147 46.514 197.483 45.782C197.831 45.038 198.347 44.456 199.031 44.036C199.727 43.604 200.585 43.388 201.605 43.388C202.301 43.388 202.919 43.508 203.459 43.748C203.999 43.976 204.437 44.318 204.773 44.774C205.121 45.218 205.349 45.776 205.457 46.448H203.603C203.447 45.956 203.183 45.602 202.811 45.386C202.451 45.17 202.025 45.062 201.533 45.062C200.873 45.062 200.345 45.218 199.949 45.53C199.565 45.842 199.283 46.244 199.103 46.736C198.923 47.228 198.833 47.744 198.833 48.284C198.833 48.848 198.923 49.37 199.103 49.85C199.295 50.33 199.583 50.72 199.967 51.02C200.363 51.308 200.879 51.452 201.515 51.452C201.995 51.452 202.439 51.35 202.847 51.146C203.255 50.93 203.519 50.57 203.639 50.066H205.547C205.439 50.762 205.187 51.338 204.791 51.794C204.395 52.238 203.903 52.568 203.315 52.784C202.739 53 202.121 53.108 201.461 53.108ZM211.517 53.108C210.521 53.108 209.687 52.904 209.015 52.496C208.343 52.088 207.833 51.524 207.485 50.804C207.149 50.072 206.981 49.232 206.981 48.284C206.981 47.324 207.155 46.478 207.503 45.746C207.863 45.014 208.379 44.438 209.051 44.018C209.735 43.598 210.557 43.388 211.517 43.388C212.249 43.388 212.885 43.526 213.425 43.802C213.965 44.066 214.409 44.426 214.757 44.882C215.117 45.338 215.381 45.848 215.549 46.412C215.717 46.964 215.789 47.54 215.765 48.14C215.765 48.272 215.759 48.398 215.747 48.518C215.735 48.638 215.723 48.764 215.711 48.896H208.853C208.889 49.376 209.009 49.814 209.213 50.21C209.429 50.606 209.729 50.924 210.113 51.164C210.497 51.392 210.971 51.506 211.535 51.506C211.847 51.506 212.147 51.47 212.435 51.398C212.735 51.314 212.999 51.188 213.227 51.02C213.467 50.84 213.635 50.612 213.731 50.336H215.603C215.447 50.972 215.165 51.5 214.757 51.92C214.361 52.328 213.875 52.628 213.299 52.82C212.735 53.012 212.141 53.108 211.517 53.108ZM208.889 47.42H213.929C213.917 46.952 213.809 46.538 213.605 46.178C213.401 45.806 213.119 45.518 212.759 45.314C212.399 45.098 211.967 44.99 211.463 44.99C210.911 44.99 210.449 45.104 210.077 45.332C209.717 45.56 209.435 45.86 209.231 46.232C209.039 46.592 208.925 46.988 208.889 47.42ZM217.677 53V43.514H219.531V53H217.677ZM218.595 42.254C218.235 42.254 217.941 42.146 217.713 41.93C217.497 41.702 217.389 41.414 217.389 41.066C217.389 40.718 217.503 40.436 217.731 40.22C217.959 39.992 218.247 39.878 218.595 39.878C218.919 39.878 219.201 39.992 219.441 40.22C219.693 40.436 219.819 40.718 219.819 41.066C219.819 41.414 219.699 41.702 219.459 41.93C219.231 42.146 218.943 42.254 218.595 42.254ZM224.327 53L220.781 43.514H222.851L225.587 51.326L228.305 43.514H230.393L226.847 53H224.327ZM235.775 53.108C234.779 53.108 233.945 52.904 233.273 52.496C232.601 52.088 232.091 51.524 231.743 50.804C231.407 50.072 231.239 49.232 231.239 48.284C231.239 47.324 231.413 46.478 231.761 45.746C232.121 45.014 232.637 44.438 233.309 44.018C233.993 43.598 234.815 43.388 235.775 43.388C236.507 43.388 237.143 43.526 237.683 43.802C238.223 44.066 238.667 44.426 239.015 44.882C239.375 45.338 239.639 45.848 239.807 46.412C239.975 46.964 240.047 47.54 240.023 48.14C240.023 48.272 240.017 48.398 240.005 48.518C239.993 48.638 239.981 48.764 239.969 48.896H233.111C233.147 49.376 233.267 49.814 233.471 50.21C233.687 50.606 233.987 50.924 234.371 51.164C234.755 51.392 235.229 51.506 235.793 51.506C236.105 51.506 236.405 51.47 236.693 51.398C236.993 51.314 237.257 51.188 237.485 51.02C237.725 50.84 237.893 50.612 237.989 50.336H239.861C239.705 50.972 239.423 51.5 239.015 51.92C238.619 52.328 238.133 52.628 237.557 52.82C236.993 53.012 236.399 53.108 235.775 53.108ZM233.147 47.42H238.187C238.175 46.952 238.067 46.538 237.863 46.178C237.659 45.806 237.377 45.518 237.017 45.314C236.657 45.098 236.225 44.99 235.721 44.99C235.169 44.99 234.707 45.104 234.335 45.332C233.975 45.56 233.693 45.86 233.489 46.232C233.297 46.592 233.183 46.988 233.147 47.42ZM245.769 53.108C244.821 53.108 244.035 52.898 243.411 52.478C242.799 52.046 242.337 51.464 242.025 50.732C241.725 50 241.575 49.178 241.575 48.266C241.575 47.342 241.731 46.514 242.043 45.782C242.355 45.038 242.829 44.456 243.465 44.036C244.101 43.604 244.905 43.388 245.877 43.388C246.237 43.388 246.597 43.43 246.957 43.514C247.329 43.598 247.671 43.73 247.983 43.91C248.307 44.078 248.583 44.306 248.811 44.594V40.274H250.665V53H248.883L248.811 51.704C248.595 52.028 248.325 52.298 248.001 52.514C247.689 52.718 247.341 52.868 246.957 52.964C246.573 53.06 246.177 53.108 245.769 53.108ZM246.075 51.452C246.687 51.452 247.191 51.302 247.587 51.002C247.995 50.702 248.301 50.306 248.505 49.814C248.709 49.322 248.811 48.788 248.811 48.212C248.811 47.624 248.709 47.096 248.505 46.628C248.313 46.148 248.013 45.77 247.605 45.494C247.209 45.206 246.699 45.062 246.075 45.062C245.427 45.062 244.911 45.212 244.527 45.512C244.143 45.8 243.861 46.19 243.681 46.682C243.513 47.174 243.429 47.714 243.429 48.302C243.429 48.734 243.477 49.142 243.573 49.526C243.669 49.898 243.819 50.234 244.023 50.534C244.239 50.822 244.515 51.05 244.851 51.218C245.187 51.374 245.595 51.452 246.075 51.452Z" fill="black"/>
<path d="M286.842 55.556V53C286.17 52.88 285.546 52.664 284.97 52.352C284.406 52.04 283.932 51.614 283.548 51.074C283.176 50.534 282.942 49.874 282.846 49.094H285.456C285.576 49.502 285.78 49.832 286.068 50.084C286.356 50.336 286.698 50.516 287.094 50.624C287.502 50.72 287.916 50.768 288.336 50.768C288.732 50.768 289.092 50.72 289.416 50.624C289.74 50.528 289.998 50.378 290.19 50.174C290.382 49.97 290.478 49.712 290.478 49.4C290.478 49.124 290.406 48.902 290.262 48.734C290.13 48.566 289.944 48.434 289.704 48.338C289.476 48.23 289.224 48.14 288.948 48.068C288.444 47.936 287.976 47.828 287.544 47.744C287.124 47.648 286.728 47.552 286.356 47.456C285.996 47.348 285.66 47.216 285.348 47.06C284.712 46.772 284.202 46.388 283.818 45.908C283.446 45.416 283.26 44.72 283.26 43.82C283.26 43.052 283.428 42.416 283.764 41.912C284.112 41.396 284.568 41 285.132 40.724C285.696 40.436 286.29 40.262 286.914 40.202V37.682H289.29V40.238C289.938 40.31 290.52 40.508 291.036 40.832C291.552 41.156 291.966 41.582 292.278 42.11C292.59 42.638 292.752 43.268 292.764 44H290.262C290.214 43.64 290.088 43.352 289.884 43.136C289.68 42.908 289.41 42.74 289.074 42.632C288.738 42.512 288.36 42.452 287.94 42.452C287.592 42.44 287.256 42.476 286.932 42.56C286.62 42.644 286.362 42.782 286.158 42.974C285.954 43.154 285.852 43.412 285.852 43.748C285.852 43.988 285.912 44.198 286.032 44.378C286.152 44.546 286.314 44.69 286.518 44.81C286.734 44.918 286.974 45.02 287.238 45.116C287.61 45.248 288.03 45.362 288.498 45.458C288.966 45.542 289.392 45.644 289.776 45.764C290.448 45.932 291.03 46.142 291.522 46.394C292.014 46.634 292.392 46.97 292.656 47.402C292.932 47.822 293.07 48.392 293.07 49.112C293.07 49.94 292.896 50.636 292.548 51.2C292.212 51.752 291.75 52.178 291.162 52.478C290.586 52.778 289.932 52.97 289.2 53.054V55.556H286.842ZM296.672 53V43.658H294.17V41.714C294.662 41.702 295.106 41.66 295.502 41.588C295.898 41.504 296.252 41.36 296.564 41.156C296.876 40.94 297.146 40.64 297.374 40.256H299.246V53H296.672ZM301.327 53V50.876L304.855 47.942C305.107 47.726 305.395 47.486 305.719 47.222C306.055 46.946 306.373 46.652 306.673 46.34C306.985 46.028 307.237 45.698 307.429 45.35C307.633 45.002 307.735 44.642 307.735 44.27C307.735 43.754 307.573 43.334 307.249 43.01C306.937 42.686 306.475 42.524 305.863 42.524C305.287 42.524 304.831 42.656 304.495 42.92C304.171 43.172 303.967 43.496 303.883 43.892H301.399C301.471 43.04 301.723 42.338 302.155 41.786C302.599 41.222 303.157 40.802 303.829 40.526C304.501 40.25 305.209 40.112 305.953 40.112C306.757 40.112 307.489 40.262 308.149 40.562C308.809 40.862 309.331 41.3 309.715 41.876C310.099 42.44 310.291 43.142 310.291 43.982C310.291 44.702 310.153 45.356 309.877 45.944C309.613 46.52 309.247 47.06 308.779 47.564C308.311 48.056 307.783 48.53 307.195 48.986L305.179 50.624H310.273V53H301.327ZM316.475 53.126C315.863 53.126 315.275 53.054 314.711 52.91C314.147 52.766 313.631 52.538 313.163 52.226C312.695 51.914 312.305 51.518 311.993 51.038C311.681 50.546 311.489 49.958 311.417 49.274H313.973C314.057 49.61 314.219 49.892 314.459 50.12C314.711 50.336 315.011 50.492 315.359 50.588C315.719 50.684 316.097 50.732 316.493 50.732C316.757 50.732 317.015 50.708 317.267 50.66C317.531 50.612 317.765 50.528 317.969 50.408C318.185 50.288 318.353 50.126 318.473 49.922C318.593 49.718 318.653 49.46 318.653 49.148C318.653 48.86 318.599 48.62 318.491 48.428C318.383 48.236 318.239 48.08 318.059 47.96C317.879 47.84 317.663 47.756 317.411 47.708C317.171 47.66 316.913 47.636 316.637 47.636H315.161V45.44H316.151C316.463 45.44 316.745 45.41 316.997 45.35C317.249 45.278 317.459 45.182 317.627 45.062C317.807 44.93 317.945 44.774 318.041 44.594C318.137 44.402 318.185 44.186 318.185 43.946C318.185 43.586 318.107 43.304 317.951 43.1C317.795 42.884 317.579 42.728 317.303 42.632C317.027 42.536 316.709 42.488 316.349 42.488C316.013 42.488 315.695 42.542 315.395 42.65C315.107 42.746 314.867 42.89 314.675 43.082C314.483 43.274 314.357 43.508 314.297 43.784H311.795C311.867 43.136 312.041 42.584 312.317 42.128C312.593 41.66 312.947 41.276 313.379 40.976C313.811 40.676 314.291 40.46 314.819 40.328C315.359 40.184 315.917 40.112 316.493 40.112C317.045 40.112 317.573 40.172 318.077 40.292C318.581 40.412 319.031 40.61 319.427 40.886C319.835 41.15 320.159 41.504 320.399 41.948C320.639 42.392 320.759 42.926 320.759 43.55C320.759 43.934 320.693 44.294 320.561 44.63C320.441 44.966 320.261 45.266 320.021 45.53C319.793 45.782 319.523 45.992 319.211 46.16C319.679 46.292 320.063 46.508 320.363 46.808C320.663 47.108 320.885 47.462 321.029 47.87C321.185 48.278 321.263 48.716 321.263 49.184C321.263 49.952 321.119 50.594 320.831 51.11C320.555 51.614 320.183 52.016 319.715 52.316C319.247 52.604 318.731 52.814 318.167 52.946C317.603 53.066 317.039 53.126 316.475 53.126Z" fill="black"/>
<defs>
<linearGradient id="paint0_linear_17_405" x1="42.9987" y1="34.8232" x2="42.9987" y2="57.1765" gradientUnits="userSpaceOnUse">
<stop stop-color="#FFE61C"/>
<stop offset="1" stop-color="#FFA929"/>
</linearGradient>
</defs>
</svg>
