<svg width="155" height="151" viewBox="0 0 155 151" fill="none" xmlns="http://www.w3.org/2000/svg">
<rect x="10" y="33" width="135" height="118" rx="11.96" fill="#D8E4F6"/>
<rect width="155" height="136" rx="11.96" fill="white"/>
<circle cx="77.5" cy="47.5" r="26.5" fill="#E9EFFE"/>
<path d="M77.9994 55.1137L72.5303 57.9883C71.3518 58.6081 69.9752 57.6076 70.1998 56.2951L71.244 50.2046L66.8192 45.8906C65.8652 44.9616 66.3918 43.3427 67.7087 43.1502L73.8239 42.2621L76.5584 36.72C77.1476 35.5256 78.8497 35.5256 79.4388 36.72L82.1734 42.2621L88.2887 43.1502C89.6056 43.3413 90.1321 44.9601 89.1784 45.8906L84.7535 50.2046L85.7977 56.2951C86.0223 57.6077 84.6455 58.6081 83.4672 57.9883L77.9994 55.1137Z" fill="#FFA500"/>
<path d="M28.4688 105L27.4375 101.953H23.1406L22.1094 105H20.2891L24.3594 93.7266H26.25L30.3203 105H28.4688ZM25.2656 95.6016L23.5859 100.547H26.9922L25.3125 95.6016H25.2656ZM31.3594 105V96.7812H32.9688V98.1641H33.0078C33.375 97.25 34.2344 96.6406 35.3438 96.6406C36.4844 96.6406 37.3125 97.2266 37.6406 98.25H37.6797C38.1016 97.25 39.0703 96.6406 40.2422 96.6406C41.8672 96.6406 42.9297 97.7188 42.9297 99.3516V105H41.2344V99.7578C41.2344 98.6953 40.6641 98.0859 39.6641 98.0859C38.6641 98.0859 37.9688 98.8281 37.9688 99.8672V105H36.3125V99.6328C36.3125 98.6875 35.7109 98.0859 34.7578 98.0859C33.7578 98.0859 33.0469 98.8672 33.0469 99.9219V105H31.3594ZM48.0938 105.156C45.7422 105.156 44.1953 103.539 44.1953 100.891C44.1953 98.25 45.75 96.6328 48.0938 96.6328C50.4375 96.6328 51.9922 98.25 51.9922 100.891C51.9922 103.539 50.4453 105.156 48.0938 105.156ZM48.0938 103.766C49.4219 103.766 50.2734 102.719 50.2734 100.891C50.2734 99.0703 49.4141 98.0234 48.0938 98.0234C46.7734 98.0234 45.9141 99.0703 45.9141 100.891C45.9141 102.719 46.7734 103.766 48.0938 103.766ZM60.3438 96.7812V105H58.7266V103.609H58.6875C58.2344 104.594 57.3984 105.148 56.1406 105.148C54.3516 105.148 53.2578 103.984 53.2578 102.102V96.7812H54.9453V101.773C54.9453 103.023 55.5391 103.695 56.7031 103.695C57.9219 103.695 58.6562 102.852 58.6562 101.57V96.7812H60.3438ZM62.0156 105V96.7812H63.625V98.1562H63.6641C64.1094 97.2188 64.9844 96.6406 66.25 96.6406C68.0625 96.6406 69.1016 97.7969 69.1016 99.6797V105H67.4062V100.008C67.4062 98.7734 66.8281 98.0938 65.6562 98.0938C64.4688 98.0938 63.7031 98.9375 63.7031 100.211V105H62.0156ZM71.2266 94.8359H72.9219V96.7812H74.4844V98.1172H72.9219V102.648C72.9219 103.359 73.2344 103.68 73.9219 103.68C74.0938 103.68 74.3672 103.664 74.4766 103.641V104.977C74.2891 105.023 73.9141 105.055 73.5391 105.055C71.875 105.055 71.2266 104.422 71.2266 102.836V98.1172H70.0312V96.7812H71.2266V94.8359ZM79.1797 105V96.7812H80.8672V105H79.1797ZM80.0234 95.5781C79.4844 95.5781 79.0469 95.1484 79.0469 94.6172C79.0469 94.0781 79.4844 93.6484 80.0234 93.6484C80.5703 93.6484 81.0078 94.0781 81.0078 94.6172C81.0078 95.1484 80.5703 95.5781 80.0234 95.5781ZM82.5938 105V96.7812H84.2031V98.1562H84.2422C84.6875 97.2188 85.5625 96.6406 86.8281 96.6406C88.6406 96.6406 89.6797 97.7969 89.6797 99.6797V105H87.9844V100.008C87.9844 98.7734 87.4062 98.0938 86.2344 98.0938C85.0469 98.0938 84.2812 98.9375 84.2812 100.211V105H82.5938ZM98.3281 96.7812L95.3828 105H93.5703L90.6094 96.7812H92.4062L94.4688 103.352H94.5L96.5625 96.7812H98.3281ZM102.5 97.9922C101.32 97.9922 100.492 98.8906 100.406 100.133H104.516C104.477 98.875 103.68 97.9922 102.5 97.9922ZM104.508 102.586H106.109C105.875 104.086 104.453 105.156 102.57 105.156C100.156 105.156 98.6953 103.523 98.6953 100.93C98.6953 98.3516 100.18 96.6328 102.5 96.6328C104.781 96.6328 106.203 98.2422 106.203 100.734V101.312H100.398V101.414C100.398 102.844 101.258 103.789 102.609 103.789C103.57 103.789 104.281 103.305 104.508 102.586ZM107.367 99.1094C107.367 97.6406 108.664 96.6328 110.586 96.6328C112.414 96.6328 113.695 97.6562 113.75 99.1172H112.164C112.086 98.375 111.484 97.9141 110.539 97.9141C109.625 97.9141 109.016 98.3594 109.016 99.0078C109.016 99.5156 109.422 99.8594 110.273 100.07L111.656 100.391C113.312 100.789 113.938 101.414 113.938 102.625C113.938 104.125 112.539 105.156 110.523 105.156C108.578 105.156 107.289 104.148 107.156 102.641H108.828C108.961 103.43 109.57 103.867 110.602 103.867C111.617 103.867 112.242 103.445 112.242 102.781C112.242 102.258 111.93 101.969 111.07 101.75L109.602 101.391C108.117 101.031 107.367 100.258 107.367 99.1094ZM115.742 94.8359H117.438V96.7812H119V98.1172H117.438V102.648C117.438 103.359 117.75 103.68 118.438 103.68C118.609 103.68 118.883 103.664 118.992 103.641V104.977C118.805 105.023 118.43 105.055 118.055 105.055C116.391 105.055 115.742 104.422 115.742 102.836V98.1172H114.547V96.7812H115.742V94.8359ZM123.625 97.9922C122.445 97.9922 121.617 98.8906 121.531 100.133H125.641C125.602 98.875 124.805 97.9922 123.625 97.9922ZM125.633 102.586H127.234C127 104.086 125.578 105.156 123.695 105.156C121.281 105.156 119.82 103.523 119.82 100.93C119.82 98.3516 121.305 96.6328 123.625 96.6328C125.906 96.6328 127.328 98.2422 127.328 100.734V101.312H121.523V101.414C121.523 102.844 122.383 103.789 123.734 103.789C124.695 103.789 125.406 103.305 125.633 102.586ZM131.727 105.141C129.648 105.141 128.273 103.484 128.273 100.891C128.273 98.2969 129.648 96.6484 131.711 96.6484C132.891 96.6484 133.828 97.2422 134.289 98.1484H134.32V93.7266H136.016V105H134.375V103.602H134.344C133.859 104.539 132.922 105.141 131.727 105.141ZM132.172 98.0703C130.836 98.0703 130 99.1641 130 100.891C130 102.625 130.836 103.711 132.172 103.711C133.469 103.711 134.336 102.609 134.336 100.891C134.336 99.1875 133.469 98.0703 132.172 98.0703Z" fill="black"/>
</svg>
