<svg width="240" height="106" viewBox="0 0 240 106" fill="none" xmlns="http://www.w3.org/2000/svg">
<rect x="25.25" y="42.8926" width="182.536" height="63.1071" rx="11.96" fill="#A1BBE7"/>
<rect x="11" y="30" width="211.036" height="63.1071" rx="11.96" fill="#D8E4F6"/>
<rect width="233" height="72" rx="11.96" fill="white"/>
<g clip-path="url(#clip0_342_527)">
<path d="M230.225 86.6978L221.484 77.9583L217.247 82.1953C216.881 82.561 216.35 82.7117 215.844 82.5947C215.338 82.4747 214.931 82.1031 214.767 81.6101L206.292 56.1854C206.112 55.647 206.252 55.053 206.653 54.6521C207.053 54.2527 207.648 54.1064 208.187 54.2908L233.611 62.7661C234.104 62.93 234.476 63.3367 234.596 63.8429C234.715 64.3476 234.564 64.8787 234.197 65.2459L229.96 69.4829L238.699 78.2238C239.284 78.809 239.284 79.7571 238.699 80.3423L232.344 86.6977C231.758 87.2831 230.81 87.2831 230.225 86.6978Z" fill="#022C87"/>
<path d="M207.475 47.9852C206.647 47.9852 205.977 47.3151 205.977 46.487V37.4981C205.977 36.6701 206.647 36 207.475 36C208.303 36 208.973 36.6701 208.973 37.4981V46.487C208.973 47.3151 208.303 47.9852 207.475 47.9852Z" fill="#022C87"/>
<path d="M200.061 50.1799L193.705 43.823C193.119 43.2378 193.119 42.2897 193.705 41.7045C194.29 41.1193 195.238 41.1193 195.823 41.7045L202.18 48.0613C202.765 48.6465 202.765 49.5947 202.18 50.1798C201.595 50.7651 200.647 50.7651 200.061 50.1799Z" fill="#022C87"/>
<path d="M193.705 69.2472C193.119 68.662 193.119 67.7139 193.705 67.1287L200.061 60.7719C200.647 60.1867 201.595 60.1867 202.18 60.7719C202.765 61.3571 202.765 62.3052 202.18 62.8904L195.823 69.2472C195.238 69.8324 194.29 69.8324 193.705 69.2472Z" fill="#022C87"/>
<path d="M212.773 50.1798C212.188 49.5947 212.188 48.6465 212.773 48.0613L219.13 41.7045C219.715 41.1193 220.663 41.1193 221.248 41.7045C221.833 42.2897 221.833 43.2378 221.248 43.823L214.891 50.1798C214.306 50.765 213.358 50.765 212.773 50.1798Z" fill="#022C87"/>
<path d="M198.487 56.9741H189.498C188.67 56.9741 188 56.304 188 55.4759C188 54.6479 188.67 53.9778 189.498 53.9778H198.487C199.315 53.9778 199.985 54.6479 199.985 55.4759C199.985 56.304 199.315 56.9741 198.487 56.9741Z" fill="#022C87"/>
</g>
<path d="M17.106 32V22.102H19.5L22.244 27.1L24.96 22.102H27.284V32H25.534V24.314L22.58 29.662H21.838L18.856 24.314V32H17.106ZM31.5647 32.098C31.2194 32.098 30.8927 32.0513 30.5847 31.958C30.2767 31.8647 30.0014 31.7293 29.7587 31.552C29.5161 31.3653 29.3201 31.1367 29.1707 30.866C29.0307 30.586 28.9607 30.2593 28.9607 29.886C28.9607 29.41 29.0541 29.0227 29.2407 28.724C29.4274 28.416 29.6794 28.1827 29.9967 28.024C30.3234 27.8653 30.6921 27.758 31.1027 27.702C31.5134 27.6367 31.9427 27.604 32.3907 27.604H33.8327C33.8327 27.2773 33.7814 26.9973 33.6787 26.764C33.5761 26.5213 33.4127 26.33 33.1887 26.19C32.9741 26.05 32.6941 25.98 32.3487 25.98C32.1247 25.98 31.9147 26.008 31.7187 26.064C31.5321 26.1107 31.3687 26.19 31.2287 26.302C31.0981 26.4047 31.0047 26.54 30.9487 26.708H29.1987C29.2641 26.3253 29.3947 25.9987 29.5907 25.728C29.7961 25.448 30.0434 25.2193 30.3327 25.042C30.6314 24.8647 30.9581 24.734 31.3127 24.65C31.6674 24.5567 32.0267 24.51 32.3907 24.51C33.4641 24.51 34.2434 24.818 34.7287 25.434C35.2234 26.05 35.4707 26.9133 35.4707 28.024V32H33.9587L33.9167 31.048C33.7021 31.3653 33.4454 31.5987 33.1467 31.748C32.8481 31.8973 32.5587 31.9907 32.2787 32.028C31.9987 32.0747 31.7607 32.098 31.5647 32.098ZM31.9007 30.712C32.2741 30.712 32.6054 30.642 32.8947 30.502C33.1841 30.362 33.4127 30.166 33.5807 29.914C33.7581 29.662 33.8467 29.3727 33.8467 29.046V28.808H32.5027C32.2787 28.808 32.0547 28.8173 31.8307 28.836C31.6161 28.8453 31.4201 28.8827 31.2427 28.948C31.0654 29.004 30.9207 29.0927 30.8087 29.214C30.7061 29.3353 30.6547 29.508 30.6547 29.732C30.6547 29.956 30.7107 30.138 30.8227 30.278C30.9441 30.418 31.0981 30.5253 31.2847 30.6C31.4807 30.6747 31.6861 30.712 31.9007 30.712ZM40.3494 32.098C39.5841 32.098 38.9401 31.944 38.4174 31.636C37.8947 31.3187 37.4981 30.8753 37.2274 30.306C36.9567 29.7367 36.8214 29.0787 36.8214 28.332C36.8214 27.5853 36.9614 26.9273 37.2414 26.358C37.5214 25.7793 37.9321 25.3267 38.4734 25C39.0147 24.6733 39.6727 24.51 40.4474 24.51C41.0167 24.51 41.5207 24.608 41.9594 24.804C42.4074 25 42.7667 25.2893 43.0374 25.672C43.3174 26.0453 43.4947 26.512 43.5694 27.072H41.8894C41.7774 26.7173 41.5907 26.4607 41.3294 26.302C41.0774 26.134 40.7741 26.05 40.4194 26.05C39.9434 26.05 39.5654 26.1667 39.2854 26.4C39.0147 26.624 38.8187 26.9087 38.6974 27.254C38.5761 27.5993 38.5154 27.9587 38.5154 28.332C38.5154 28.724 38.5807 29.0927 38.7114 29.438C38.8421 29.774 39.0427 30.0447 39.3134 30.25C39.5934 30.4553 39.9527 30.558 40.3914 30.558C40.7461 30.558 41.0634 30.4787 41.3434 30.32C41.6327 30.1613 41.8194 29.9047 41.9034 29.55H43.6394C43.5741 30.1193 43.3827 30.5953 43.0654 30.978C42.7574 31.3513 42.3654 31.6313 41.8894 31.818C41.4134 32.0047 40.9001 32.098 40.3494 32.098ZM44.9217 32V24.622H46.6297V32H44.9217ZM45.7757 23.768C45.449 23.768 45.1877 23.67 44.9917 23.474C44.7957 23.278 44.6977 23.0213 44.6977 22.704C44.6977 22.396 44.8004 22.144 45.0057 21.948C45.211 21.7427 45.4677 21.64 45.7757 21.64C46.0744 21.64 46.331 21.738 46.5457 21.934C46.7604 22.13 46.8677 22.3867 46.8677 22.704C46.8677 23.0213 46.765 23.278 46.5597 23.474C46.3544 23.67 46.093 23.768 45.7757 23.768ZM51.659 32.098C50.903 32.098 50.2497 31.944 49.699 31.636C49.1577 31.328 48.7377 30.8893 48.439 30.32C48.1497 29.7507 48.005 29.0833 48.005 28.318C48.005 27.5433 48.1543 26.876 48.453 26.316C48.7517 25.7467 49.1717 25.3033 49.713 24.986C50.2543 24.6687 50.903 24.51 51.659 24.51C52.4057 24.51 53.0497 24.6687 53.591 24.986C54.1323 25.3033 54.5477 25.7513 54.837 26.33C55.1263 26.8993 55.271 27.5713 55.271 28.346C55.271 29.102 55.1263 29.7647 54.837 30.334C54.557 30.894 54.1463 31.328 53.605 31.636C53.0637 31.944 52.415 32.098 51.659 32.098ZM51.645 30.544C52.1117 30.544 52.485 30.4413 52.765 30.236C53.0543 30.0307 53.2643 29.76 53.395 29.424C53.5257 29.088 53.591 28.724 53.591 28.332C53.591 27.94 53.5257 27.5713 53.395 27.226C53.2643 26.8807 53.0543 26.6053 52.765 26.4C52.485 26.1853 52.1117 26.078 51.645 26.078C51.1783 26.078 50.8003 26.1853 50.511 26.4C50.2217 26.6053 50.0117 26.8807 49.881 27.226C49.7503 27.562 49.685 27.9307 49.685 28.332C49.685 28.724 49.7503 29.0927 49.881 29.438C50.021 29.774 50.231 30.0447 50.511 30.25C50.8003 30.446 51.1783 30.544 51.645 30.544ZM60.815 32V22.102H62.565V26.33H67.185V22.102H68.921V32H67.185V27.926H62.565V32H60.815ZM73.2093 32.098C72.8639 32.098 72.5373 32.0513 72.2293 31.958C71.9213 31.8647 71.6459 31.7293 71.4033 31.552C71.1606 31.3653 70.9646 31.1367 70.8153 30.866C70.6753 30.586 70.6053 30.2593 70.6053 29.886C70.6053 29.41 70.6986 29.0227 70.8853 28.724C71.0719 28.416 71.3239 28.1827 71.6413 28.024C71.9679 27.8653 72.3366 27.758 72.7473 27.702C73.1579 27.6367 73.5873 27.604 74.0353 27.604H75.4773C75.4773 27.2773 75.4259 26.9973 75.3233 26.764C75.2206 26.5213 75.0573 26.33 74.8333 26.19C74.6186 26.05 74.3386 25.98 73.9933 25.98C73.7693 25.98 73.5593 26.008 73.3633 26.064C73.1766 26.1107 73.0133 26.19 72.8733 26.302C72.7426 26.4047 72.6493 26.54 72.5933 26.708H70.8433C70.9086 26.3253 71.0393 25.9987 71.2353 25.728C71.4406 25.448 71.6879 25.2193 71.9773 25.042C72.2759 24.8647 72.6026 24.734 72.9573 24.65C73.3119 24.5567 73.6713 24.51 74.0353 24.51C75.1086 24.51 75.8879 24.818 76.3733 25.434C76.8679 26.05 77.1153 26.9133 77.1153 28.024V32H75.6033L75.5613 31.048C75.3466 31.3653 75.0899 31.5987 74.7913 31.748C74.4926 31.8973 74.2033 31.9907 73.9233 32.028C73.6433 32.0747 73.4053 32.098 73.2093 32.098ZM73.5453 30.712C73.9186 30.712 74.2499 30.642 74.5393 30.502C74.8286 30.362 75.0573 30.166 75.2253 29.914C75.4026 29.662 75.4913 29.3727 75.4913 29.046V28.808H74.1472C73.9233 28.808 73.6993 28.8173 73.4753 28.836C73.2606 28.8453 73.0646 28.8827 72.8873 28.948C72.7099 29.004 72.5653 29.0927 72.4533 29.214C72.3506 29.3353 72.2993 29.508 72.2993 29.732C72.2993 29.956 72.3553 30.138 72.4673 30.278C72.5886 30.418 72.7426 30.5253 72.9293 30.6C73.1253 30.6747 73.3306 30.712 73.5453 30.712ZM78.7459 32V24.622H80.3419L80.4399 25.56C80.6359 25.2987 80.8646 25.0933 81.1259 24.944C81.3873 24.7947 81.6626 24.6873 81.9519 24.622C82.2413 24.5473 82.5119 24.51 82.7639 24.51C83.4639 24.51 84.0146 24.664 84.4159 24.972C84.8266 25.28 85.1159 25.6907 85.2839 26.204C85.4519 26.7173 85.5359 27.2913 85.5359 27.926V32H83.8279V28.206C83.8279 27.9353 83.8093 27.674 83.7719 27.422C83.7346 27.1607 83.6599 26.9273 83.5479 26.722C83.4453 26.5167 83.2959 26.3533 83.0999 26.232C82.9039 26.1107 82.6426 26.05 82.3159 26.05C81.9146 26.05 81.5739 26.1573 81.2939 26.372C81.0139 26.5867 80.8039 26.876 80.6639 27.24C80.5239 27.5947 80.4539 28.0007 80.4539 28.458V32H78.7459ZM90.1505 32.098C89.4038 32.098 88.7878 31.93 88.3025 31.594C87.8171 31.2487 87.4531 30.7913 87.2105 30.222C86.9771 29.6527 86.8605 29.018 86.8605 28.318C86.8605 27.59 86.9865 26.9413 87.2385 26.372C87.4905 25.7933 87.8685 25.3407 88.3725 25.014C88.8765 24.678 89.5065 24.51 90.2625 24.51C90.5425 24.51 90.8131 24.5427 91.0745 24.608C91.3451 24.664 91.5971 24.7573 91.8305 24.888C92.0731 25.0093 92.2738 25.1727 92.4325 25.378V22.102H94.1405V32H92.4885L92.4605 31.076C92.2831 31.3093 92.0731 31.5007 91.8305 31.65C91.5971 31.7993 91.3358 31.9113 91.0465 31.986C90.7571 32.0607 90.4585 32.098 90.1505 32.098ZM90.4725 30.558C90.9205 30.558 91.2891 30.4553 91.5785 30.25C91.8678 30.0353 92.0825 29.7553 92.2225 29.41C92.3718 29.0553 92.4465 28.682 92.4465 28.29C92.4465 27.8793 92.3718 27.506 92.2225 27.17C92.0825 26.834 91.8678 26.5633 91.5785 26.358C91.2891 26.1527 90.9205 26.05 90.4725 26.05C89.9965 26.05 89.6185 26.1573 89.3385 26.372C89.0678 26.5867 88.8671 26.8713 88.7365 27.226C88.6151 27.5713 88.5545 27.9447 88.5545 28.346C88.5545 28.6447 88.5871 28.9293 88.6525 29.2C88.7271 29.4613 88.8391 29.6947 88.9885 29.9C89.1378 30.1053 89.3338 30.2687 89.5765 30.39C89.8191 30.502 90.1178 30.558 90.4725 30.558ZM95.7948 32V24.622H97.5028V32H95.7948ZM96.6488 23.768C96.3221 23.768 96.0608 23.67 95.8648 23.474C95.6688 23.278 95.5708 23.0213 95.5708 22.704C95.5708 22.396 95.6734 22.144 95.8788 21.948C96.0841 21.7427 96.3408 21.64 96.6488 21.64C96.9474 21.64 97.2041 21.738 97.4188 21.934C97.6334 22.13 97.7408 22.3867 97.7408 22.704C97.7408 23.0213 97.6381 23.278 97.4328 23.474C97.2274 23.67 96.9661 23.768 96.6488 23.768ZM102.406 32.098C101.641 32.098 100.997 31.944 100.474 31.636C99.9514 31.3187 99.5547 30.8753 99.284 30.306C99.0134 29.7367 98.878 29.0787 98.878 28.332C98.878 27.5853 99.018 26.9273 99.298 26.358C99.578 25.7793 99.9887 25.3267 100.53 25C101.071 24.6733 101.729 24.51 102.504 24.51C103.073 24.51 103.577 24.608 104.016 24.804C104.464 25 104.823 25.2893 105.094 25.672C105.374 26.0453 105.551 26.512 105.626 27.072H103.946C103.834 26.7173 103.647 26.4607 103.386 26.302C103.134 26.134 102.831 26.05 102.476 26.05C102 26.05 101.622 26.1667 101.342 26.4C101.071 26.624 100.875 26.9087 100.754 27.254C100.633 27.5993 100.572 27.9587 100.572 28.332C100.572 28.724 100.637 29.0927 100.768 29.438C100.899 29.774 101.099 30.0447 101.37 30.25C101.65 30.4553 102.009 30.558 102.448 30.558C102.803 30.558 103.12 30.4787 103.4 30.32C103.689 30.1613 103.876 29.9047 103.96 29.55H105.696C105.631 30.1193 105.439 30.5953 105.122 30.978C104.814 31.3513 104.422 31.6313 103.946 31.818C103.47 32.0047 102.957 32.098 102.406 32.098ZM106.978 32V24.622H108.532L108.63 25.588C108.817 25.308 109.027 25.0933 109.26 24.944C109.503 24.7853 109.76 24.6733 110.03 24.608C110.31 24.5427 110.59 24.51 110.87 24.51C110.973 24.51 111.066 24.51 111.15 24.51C111.244 24.51 111.318 24.5147 111.374 24.524V26.148H110.926C110.441 26.148 110.03 26.2413 109.694 26.428C109.358 26.6147 109.106 26.8807 108.938 27.226C108.77 27.5713 108.686 27.996 108.686 28.5V32H106.978ZM114.731 32.098C114.385 32.098 114.059 32.0513 113.751 31.958C113.443 31.8647 113.167 31.7293 112.925 31.552C112.682 31.3653 112.486 31.1367 112.337 30.866C112.197 30.586 112.127 30.2593 112.127 29.886C112.127 29.41 112.22 29.0227 112.407 28.724C112.593 28.416 112.845 28.1827 113.163 28.024C113.489 27.8653 113.858 27.758 114.269 27.702C114.679 27.6367 115.109 27.604 115.557 27.604H116.999C116.999 27.2773 116.947 26.9973 116.845 26.764C116.742 26.5213 116.579 26.33 116.355 26.19C116.14 26.05 115.86 25.98 115.515 25.98C115.291 25.98 115.081 26.008 114.885 26.064C114.698 26.1107 114.535 26.19 114.395 26.302C114.264 26.4047 114.171 26.54 114.115 26.708H112.365C112.43 26.3253 112.561 25.9987 112.757 25.728C112.962 25.448 113.209 25.2193 113.499 25.042C113.797 24.8647 114.124 24.734 114.479 24.65C114.833 24.5567 115.193 24.51 115.557 24.51C116.63 24.51 117.409 24.818 117.895 25.434C118.389 26.05 118.637 26.9133 118.637 28.024V32H117.125L117.083 31.048C116.868 31.3653 116.611 31.5987 116.313 31.748C116.014 31.8973 115.725 31.9907 115.445 32.028C115.165 32.0747 114.927 32.098 114.731 32.098ZM115.067 30.712C115.44 30.712 115.771 30.642 116.061 30.502C116.35 30.362 116.579 30.166 116.747 29.914C116.924 29.662 117.013 29.3727 117.013 29.046V28.808H115.669C115.445 28.808 115.221 28.8173 114.997 28.836C114.782 28.8453 114.586 28.8827 114.409 28.948C114.231 29.004 114.087 29.0927 113.975 29.214C113.872 29.3353 113.821 29.508 113.821 29.732C113.821 29.956 113.877 30.138 113.989 30.278C114.11 30.418 114.264 30.5253 114.451 30.6C114.647 30.6747 114.852 30.712 115.067 30.712ZM120.925 32V26.134H119.777V24.622H120.925V23.922C120.925 23.362 121.009 22.9047 121.177 22.55C121.345 22.186 121.611 21.92 121.975 21.752C122.349 21.584 122.825 21.5 123.403 21.5H124.495V23.012H123.599C123.347 23.012 123.151 23.054 123.011 23.138C122.871 23.222 122.769 23.348 122.703 23.516C122.647 23.6747 122.619 23.8707 122.619 24.104V24.622H124.495V26.134H122.619V32H120.925ZM128.498 32.084C127.686 32.084 127.094 31.86 126.72 31.412C126.347 30.964 126.16 30.3433 126.16 29.55V26.134H125.026V24.622H126.16V22.55H127.868V24.622H130.108V26.134H127.868V29.228C127.868 29.4707 127.896 29.69 127.952 29.886C128.008 30.082 128.111 30.236 128.26 30.348C128.41 30.46 128.615 30.5207 128.876 30.53C129.1 30.53 129.292 30.4927 129.45 30.418C129.609 30.3433 129.74 30.2593 129.842 30.166L130.416 31.468C130.239 31.6173 130.038 31.7387 129.814 31.832C129.6 31.9253 129.38 31.9907 129.156 32.028C128.932 32.0653 128.713 32.084 128.498 32.084ZM134.17 32.098C133.815 32.098 133.46 32.0607 133.106 31.986C132.76 31.9113 132.434 31.79 132.126 31.622C131.818 31.4447 131.561 31.2067 131.356 30.908C131.15 30.6093 131.015 30.236 130.95 29.788H132.672C132.746 29.9933 132.863 30.1613 133.022 30.292C133.19 30.4133 133.381 30.5067 133.596 30.572C133.82 30.628 134.039 30.656 134.254 30.656C134.384 30.656 134.524 30.6467 134.674 30.628C134.832 30.6093 134.977 30.572 135.108 30.516C135.248 30.46 135.36 30.3807 135.444 30.278C135.528 30.166 135.57 30.0213 135.57 29.844C135.57 29.676 135.523 29.5453 135.43 29.452C135.336 29.3493 135.21 29.27 135.052 29.214C134.893 29.1487 134.702 29.0973 134.478 29.06C134.076 28.976 133.647 28.8873 133.19 28.794C132.732 28.6913 132.336 28.5327 132 28.318C131.86 28.234 131.738 28.136 131.636 28.024C131.533 27.912 131.444 27.7907 131.37 27.66C131.304 27.52 131.253 27.3707 131.216 27.212C131.188 27.0533 131.174 26.8807 131.174 26.694C131.174 26.302 131.253 25.9707 131.412 25.7C131.58 25.42 131.799 25.196 132.07 25.028C132.35 24.8507 132.667 24.72 133.022 24.636C133.376 24.552 133.74 24.51 134.114 24.51C134.618 24.51 135.075 24.5893 135.486 24.748C135.896 24.9067 136.237 25.1493 136.508 25.476C136.788 25.8027 136.956 26.218 137.012 26.722H135.388C135.341 26.4887 135.196 26.302 134.954 26.162C134.72 26.022 134.422 25.952 134.058 25.952C133.927 25.952 133.792 25.966 133.652 25.994C133.512 26.0127 133.376 26.05 133.246 26.106C133.124 26.1527 133.022 26.2273 132.938 26.33C132.863 26.4327 132.826 26.5587 132.826 26.708C132.826 26.848 132.858 26.9693 132.924 27.072C132.998 27.1747 133.106 27.2633 133.246 27.338C133.395 27.4033 133.568 27.4593 133.764 27.506C134.081 27.5713 134.412 27.6367 134.758 27.702C135.103 27.7673 135.402 27.8327 135.654 27.898C135.952 27.982 136.223 28.1033 136.466 28.262C136.708 28.4113 136.895 28.612 137.026 28.864C137.166 29.1067 137.236 29.4193 137.236 29.802C137.236 30.25 137.142 30.6233 136.956 30.922C136.778 31.2207 136.54 31.454 136.242 31.622C135.943 31.79 135.612 31.9113 135.248 31.986C134.884 32.0607 134.524 32.098 134.17 32.098Z" fill="black"/>
<path d="M19.492 55.656V54.06C19.044 54.012 18.624 53.904 18.232 53.736C17.848 53.568 17.52 53.324 17.248 53.004C16.984 52.676 16.804 52.268 16.708 51.78H17.8C17.912 52.14 18.092 52.42 18.34 52.62C18.596 52.82 18.888 52.96 19.216 53.04C19.544 53.112 19.872 53.148 20.2 53.148C20.528 53.148 20.832 53.104 21.112 53.016C21.4 52.92 21.632 52.768 21.808 52.56C21.992 52.352 22.084 52.084 22.084 51.756C22.084 51.5 22.036 51.292 21.94 51.132C21.852 50.972 21.724 50.844 21.556 50.748C21.396 50.644 21.204 50.56 20.98 50.496C20.684 50.4 20.368 50.324 20.032 50.268C19.696 50.204 19.364 50.132 19.036 50.052C18.716 49.964 18.416 49.848 18.136 49.704C17.8 49.52 17.528 49.276 17.32 48.972C17.112 48.668 17.008 48.276 17.008 47.796C17.008 47.276 17.124 46.848 17.356 46.512C17.596 46.176 17.908 45.92 18.292 45.744C18.684 45.568 19.104 45.464 19.552 45.432V43.872H20.608V45.456C21.032 45.496 21.412 45.608 21.748 45.792C22.092 45.968 22.368 46.212 22.576 46.524C22.784 46.836 22.896 47.224 22.912 47.688H21.892C21.852 47.352 21.74 47.088 21.556 46.896C21.372 46.704 21.144 46.568 20.872 46.488C20.6 46.408 20.312 46.368 20.008 46.368C19.712 46.368 19.416 46.408 19.12 46.488C18.824 46.56 18.576 46.692 18.376 46.884C18.184 47.076 18.088 47.348 18.088 47.7C18.088 47.908 18.124 48.092 18.196 48.252C18.276 48.412 18.38 48.544 18.508 48.648C18.636 48.752 18.78 48.84 18.94 48.912C19.324 49.072 19.748 49.196 20.212 49.284C20.684 49.364 21.128 49.472 21.544 49.608C21.88 49.712 22.168 49.852 22.408 50.028C22.648 50.196 22.832 50.412 22.96 50.676C23.088 50.932 23.152 51.244 23.152 51.612C23.152 52.156 23.032 52.604 22.792 52.956C22.56 53.308 22.248 53.576 21.856 53.76C21.464 53.944 21.024 54.052 20.536 54.084V55.656H19.492ZM24.235 54V53.124L26.635 51.048C26.851 50.864 27.087 50.664 27.343 50.448C27.607 50.224 27.855 49.984 28.087 49.728C28.327 49.472 28.523 49.2 28.675 48.912C28.835 48.616 28.915 48.304 28.915 47.976C28.915 47.464 28.763 47.072 28.459 46.8C28.155 46.52 27.747 46.38 27.235 46.38C26.827 46.38 26.471 46.464 26.167 46.632C25.863 46.8 25.663 47.044 25.567 47.364H24.451C24.531 46.924 24.711 46.564 24.991 46.284C25.279 45.996 25.623 45.78 26.023 45.636C26.431 45.492 26.851 45.42 27.283 45.42C27.811 45.42 28.275 45.516 28.675 45.708C29.083 45.9 29.399 46.18 29.623 46.548C29.855 46.908 29.971 47.352 29.971 47.88C29.971 48.4 29.871 48.856 29.671 49.248C29.479 49.64 29.223 49.996 28.903 50.316C28.591 50.628 28.255 50.936 27.895 51.24L25.747 53.052H30.067V54H24.235ZM34.1639 54.096C33.8279 54.096 33.4879 54.064 33.1439 54C32.8079 53.928 32.4919 53.816 32.1959 53.664C31.9079 53.512 31.6599 53.308 31.4519 53.052C31.2519 52.796 31.1239 52.48 31.0679 52.104H32.1479C32.2439 52.376 32.4039 52.588 32.6279 52.74C32.8519 52.892 33.0999 53 33.3719 53.064C33.6519 53.12 33.9199 53.148 34.1759 53.148C34.3599 53.148 34.5599 53.132 34.7759 53.1C34.9919 53.068 35.1999 53 35.3999 52.896C35.6079 52.792 35.7759 52.64 35.9039 52.44C36.0319 52.232 36.0959 51.96 36.0959 51.624C36.0959 51.304 36.0359 51.048 35.9159 50.856C35.7959 50.656 35.6359 50.508 35.4359 50.412C35.2359 50.308 35.0119 50.24 34.7639 50.208C34.5239 50.176 34.2799 50.16 34.0319 50.16H33.2159V49.224H33.7079C33.9879 49.224 34.2519 49.2 34.4999 49.152C34.7479 49.096 34.9679 49.012 35.1599 48.9C35.3519 48.788 35.4999 48.64 35.6039 48.456C35.7159 48.272 35.7719 48.044 35.7719 47.772C35.7719 47.38 35.6879 47.084 35.5199 46.884C35.3599 46.684 35.1519 46.548 34.8959 46.476C34.6399 46.404 34.3719 46.368 34.0919 46.368C33.8679 46.368 33.6359 46.404 33.3959 46.476C33.1639 46.54 32.9559 46.648 32.7719 46.8C32.5879 46.944 32.4639 47.14 32.3999 47.388H31.3559C31.4039 47.036 31.5159 46.736 31.6919 46.488C31.8679 46.24 32.0839 46.036 32.3399 45.876C32.6039 45.716 32.8919 45.6 33.2039 45.528C33.5239 45.456 33.8479 45.42 34.1759 45.42C34.5359 45.42 34.8719 45.46 35.1839 45.54C35.5039 45.612 35.7839 45.736 36.0239 45.912C36.2639 46.08 36.4519 46.304 36.5879 46.584C36.7319 46.864 36.8039 47.204 36.8039 47.604C36.8039 47.9 36.7559 48.172 36.6599 48.42C36.5639 48.668 36.4199 48.884 36.2279 49.068C36.0439 49.252 35.8119 49.404 35.5319 49.524C35.8919 49.588 36.1919 49.716 36.4319 49.908C36.6799 50.1 36.8639 50.336 36.9839 50.616C37.1119 50.888 37.1759 51.196 37.1759 51.54C37.1759 52.076 37.0799 52.512 36.8879 52.848C36.6959 53.184 36.4479 53.444 36.1439 53.628C35.8399 53.804 35.5119 53.928 35.1599 54C34.8079 54.064 34.4759 54.096 34.1639 54.096ZM38.9475 55.452L38.6595 55.056C38.7715 54.976 38.8755 54.88 38.9715 54.768C39.0675 54.656 39.1515 54.536 39.2235 54.408C39.3035 54.28 39.3595 54.152 39.3915 54.024C39.1835 54.008 39.0155 53.94 38.8875 53.82C38.7595 53.7 38.6955 53.54 38.6955 53.34C38.7035 53.132 38.7755 52.968 38.9115 52.848C39.0555 52.72 39.2195 52.656 39.4035 52.656C39.6355 52.656 39.8195 52.74 39.9555 52.908C40.0995 53.076 40.1715 53.312 40.1715 53.616C40.1715 53.856 40.1115 54.104 39.9915 54.36C39.8795 54.616 39.7315 54.84 39.5475 55.032C39.3635 55.232 39.1635 55.372 38.9475 55.452ZM44.746 54.096C44.154 54.096 43.646 53.988 43.222 53.772C42.806 53.548 42.466 53.24 42.202 52.848C41.938 52.448 41.742 51.988 41.614 51.468C41.494 50.94 41.434 50.372 41.434 49.764C41.434 49.156 41.494 48.592 41.614 48.072C41.734 47.544 41.926 47.084 42.19 46.692C42.454 46.292 42.794 45.98 43.21 45.756C43.634 45.532 44.146 45.42 44.746 45.42C45.378 45.42 45.906 45.544 46.33 45.792C46.762 46.032 47.102 46.36 47.35 46.776C47.606 47.192 47.786 47.66 47.89 48.18C48.002 48.692 48.058 49.22 48.058 49.764C48.058 50.308 48.002 50.84 47.89 51.36C47.786 51.872 47.606 52.336 47.35 52.752C47.102 53.16 46.762 53.488 46.33 53.736C45.906 53.976 45.378 54.096 44.746 54.096ZM44.746 53.148C45.218 53.148 45.598 53.048 45.886 52.848C46.182 52.64 46.41 52.368 46.57 52.032C46.73 51.696 46.838 51.332 46.894 50.94C46.95 50.54 46.978 50.148 46.978 49.764C46.978 49.388 46.95 49.004 46.894 48.612C46.838 48.212 46.73 47.844 46.57 47.508C46.41 47.164 46.182 46.888 45.886 46.68C45.598 46.472 45.218 46.368 44.746 46.368C44.266 46.368 43.878 46.472 43.582 46.68C43.286 46.888 43.058 47.164 42.898 47.508C42.746 47.844 42.642 48.212 42.586 48.612C42.53 49.004 42.502 49.388 42.502 49.764C42.502 50.148 42.53 50.54 42.586 50.94C42.642 51.332 42.746 51.696 42.898 52.032C43.058 52.368 43.286 52.64 43.582 52.848C43.878 53.048 44.266 53.148 44.746 53.148ZM52.7265 54.096C52.1345 54.096 51.6265 53.988 51.2025 53.772C50.7865 53.548 50.4465 53.24 50.1825 52.848C49.9185 52.448 49.7225 51.988 49.5945 51.468C49.4745 50.94 49.4145 50.372 49.4145 49.764C49.4145 49.156 49.4745 48.592 49.5945 48.072C49.7145 47.544 49.9065 47.084 50.1705 46.692C50.4345 46.292 50.7745 45.98 51.1905 45.756C51.6145 45.532 52.1265 45.42 52.7265 45.42C53.3585 45.42 53.8865 45.544 54.3105 45.792C54.7425 46.032 55.0825 46.36 55.3305 46.776C55.5865 47.192 55.7665 47.66 55.8705 48.18C55.9825 48.692 56.0385 49.22 56.0385 49.764C56.0385 50.308 55.9825 50.84 55.8705 51.36C55.7665 51.872 55.5865 52.336 55.3305 52.752C55.0825 53.16 54.7425 53.488 54.3105 53.736C53.8865 53.976 53.3585 54.096 52.7265 54.096ZM52.7265 53.148C53.1985 53.148 53.5785 53.048 53.8665 52.848C54.1625 52.64 54.3905 52.368 54.5505 52.032C54.7105 51.696 54.8185 51.332 54.8745 50.94C54.9305 50.54 54.9585 50.148 54.9585 49.764C54.9585 49.388 54.9305 49.004 54.8745 48.612C54.8185 48.212 54.7105 47.844 54.5505 47.508C54.3905 47.164 54.1625 46.888 53.8665 46.68C53.5785 46.472 53.1985 46.368 52.7265 46.368C52.2465 46.368 51.8585 46.472 51.5625 46.68C51.2665 46.888 51.0385 47.164 50.8785 47.508C50.7265 47.844 50.6225 48.212 50.5665 48.612C50.5105 49.004 50.4825 49.388 50.4825 49.764C50.4825 50.148 50.5105 50.54 50.5665 50.94C50.6225 51.332 50.7265 51.696 50.8785 52.032C51.0385 52.368 51.2665 52.64 51.5625 52.848C51.8585 53.048 52.2465 53.148 52.7265 53.148ZM60.7069 54.096C60.1149 54.096 59.6069 53.988 59.1829 53.772C58.7669 53.548 58.4269 53.24 58.1629 52.848C57.8989 52.448 57.7029 51.988 57.5749 51.468C57.4549 50.94 57.3949 50.372 57.3949 49.764C57.3949 49.156 57.4549 48.592 57.5749 48.072C57.6949 47.544 57.8869 47.084 58.1509 46.692C58.4149 46.292 58.7549 45.98 59.1709 45.756C59.5949 45.532 60.1069 45.42 60.7069 45.42C61.3389 45.42 61.8669 45.544 62.2909 45.792C62.7229 46.032 63.0629 46.36 63.3109 46.776C63.5669 47.192 63.7469 47.66 63.8509 48.18C63.9629 48.692 64.0189 49.22 64.0189 49.764C64.0189 50.308 63.9629 50.84 63.8509 51.36C63.7469 51.872 63.5669 52.336 63.3109 52.752C63.0629 53.16 62.7229 53.488 62.2909 53.736C61.8669 53.976 61.3389 54.096 60.7069 54.096ZM60.7069 53.148C61.1789 53.148 61.5589 53.048 61.8469 52.848C62.1429 52.64 62.3709 52.368 62.5309 52.032C62.6909 51.696 62.7989 51.332 62.8549 50.94C62.9109 50.54 62.9389 50.148 62.9389 49.764C62.9389 49.388 62.9109 49.004 62.8549 48.612C62.7989 48.212 62.6909 47.844 62.5309 47.508C62.3709 47.164 62.1429 46.888 61.8469 46.68C61.5589 46.472 61.1789 46.368 60.7069 46.368C60.2269 46.368 59.8389 46.472 59.5429 46.68C59.2469 46.888 59.0189 47.164 58.8589 47.508C58.7069 47.844 58.6029 48.212 58.5469 48.612C58.4909 49.004 58.4629 49.388 58.4629 49.764C58.4629 50.148 58.4909 50.54 58.5469 50.94C58.6029 51.332 58.7069 51.696 58.8589 52.032C59.0189 52.368 59.2469 52.64 59.5429 52.848C59.8389 53.048 60.2269 53.148 60.7069 53.148ZM68.7298 54V47.676H69.7138L69.7618 48.66C69.9218 48.412 70.1058 48.212 70.3138 48.06C70.5298 47.908 70.7658 47.796 71.0218 47.724C71.2858 47.644 71.5698 47.604 71.8738 47.604C71.9298 47.604 71.9818 47.604 72.0298 47.604C72.0858 47.604 72.1418 47.604 72.1978 47.604V48.564H71.8258C71.3298 48.564 70.9258 48.672 70.6138 48.888C70.3098 49.096 70.0898 49.38 69.9538 49.74C69.8178 50.092 69.7498 50.484 69.7498 50.916V54H68.7298ZM75.8252 54.072C75.1532 54.072 74.5972 53.936 74.1572 53.664C73.7172 53.384 73.3892 53 73.1732 52.512C72.9572 52.024 72.8492 51.468 72.8492 50.844C72.8492 50.212 72.9612 49.656 73.1852 49.176C73.4172 48.688 73.7532 48.304 74.1932 48.024C74.6332 47.744 75.1732 47.604 75.8132 47.604C76.3092 47.604 76.7332 47.7 77.0852 47.892C77.4452 48.076 77.7412 48.324 77.9732 48.636C78.2052 48.948 78.3732 49.292 78.4772 49.668C78.5812 50.036 78.6252 50.408 78.6092 50.784C78.6012 50.856 78.5932 50.928 78.5852 51C78.5852 51.072 78.5812 51.144 78.5732 51.216H73.8812C73.9132 51.584 74.0052 51.916 74.1572 52.212C74.3092 52.508 74.5252 52.744 74.8052 52.92C75.0852 53.088 75.4332 53.172 75.8492 53.172C76.0572 53.172 76.2652 53.148 76.4732 53.1C76.6892 53.044 76.8812 52.952 77.0492 52.824C77.2252 52.696 77.3492 52.524 77.4212 52.308H78.4652C78.3692 52.716 78.1892 53.052 77.9252 53.316C77.6612 53.572 77.3452 53.764 76.9772 53.892C76.6092 54.012 76.2252 54.072 75.8252 54.072ZM73.9052 50.328H77.5652C77.5572 49.968 77.4772 49.652 77.3252 49.38C77.1732 49.108 76.9652 48.896 76.7012 48.744C76.4452 48.592 76.1372 48.516 75.7772 48.516C75.3852 48.516 75.0532 48.6 74.7812 48.768C74.5172 48.936 74.3132 49.156 74.1692 49.428C74.0252 49.7 73.9372 50 73.9052 50.328ZM81.6841 54L79.2481 47.676H80.4001L82.3921 53.016L84.3481 47.676H85.5121L83.0761 54H81.6841ZM89.1377 54.072C88.4657 54.072 87.9097 53.936 87.4697 53.664C87.0297 53.384 86.7017 53 86.4857 52.512C86.2697 52.024 86.1617 51.468 86.1617 50.844C86.1617 50.212 86.2737 49.656 86.4977 49.176C86.7297 48.688 87.0657 48.304 87.5057 48.024C87.9457 47.744 88.4857 47.604 89.1257 47.604C89.6217 47.604 90.0457 47.7 90.3977 47.892C90.7577 48.076 91.0537 48.324 91.2857 48.636C91.5177 48.948 91.6857 49.292 91.7897 49.668C91.8937 50.036 91.9377 50.408 91.9217 50.784C91.9137 50.856 91.9057 50.928 91.8977 51C91.8977 51.072 91.8937 51.144 91.8857 51.216H87.1937C87.2257 51.584 87.3177 51.916 87.4697 52.212C87.6217 52.508 87.8377 52.744 88.1177 52.92C88.3977 53.088 88.7457 53.172 89.1617 53.172C89.3697 53.172 89.5777 53.148 89.7857 53.1C90.0017 53.044 90.1937 52.952 90.3617 52.824C90.5377 52.696 90.6617 52.524 90.7337 52.308H91.7777C91.6817 52.716 91.5017 53.052 91.2377 53.316C90.9737 53.572 90.6577 53.764 90.2897 53.892C89.9217 54.012 89.5377 54.072 89.1377 54.072ZM87.2177 50.328H90.8777C90.8697 49.968 90.7897 49.652 90.6377 49.38C90.4857 49.108 90.2777 48.896 90.0137 48.744C89.7577 48.592 89.4497 48.516 89.0897 48.516C88.6977 48.516 88.3657 48.6 88.0937 48.768C87.8297 48.936 87.6257 49.156 87.4817 49.428C87.3377 49.7 87.2497 50 87.2177 50.328ZM93.2806 54V47.676H94.2646L94.3126 48.636C94.4566 48.404 94.6406 48.212 94.8646 48.06C95.0886 47.908 95.3326 47.796 95.5966 47.724C95.8686 47.644 96.1326 47.604 96.3886 47.604C97.0046 47.604 97.4846 47.732 97.8286 47.988C98.1806 48.244 98.4286 48.592 98.5726 49.032C98.7246 49.464 98.8006 49.956 98.8006 50.508V54H97.7806V50.784C97.7806 50.488 97.7606 50.204 97.7206 49.932C97.6886 49.66 97.6166 49.416 97.5046 49.2C97.4006 48.984 97.2486 48.816 97.0486 48.696C96.8486 48.568 96.5806 48.504 96.2446 48.504C95.8286 48.504 95.4726 48.62 95.1766 48.852C94.8886 49.084 94.6686 49.396 94.5166 49.788C94.3726 50.18 94.3006 50.62 94.3006 51.108V54H93.2806ZM103.01 54.072C102.138 54.072 101.474 53.84 101.018 53.376C100.57 52.912 100.346 52.2 100.346 51.24V47.676H101.366V51.192C101.366 51.608 101.426 51.964 101.546 52.26C101.666 52.556 101.846 52.784 102.086 52.944C102.334 53.096 102.642 53.172 103.01 53.172C103.394 53.172 103.71 53.096 103.958 52.944C104.206 52.784 104.386 52.556 104.498 52.26C104.618 51.964 104.678 51.608 104.678 51.192V47.676H105.698V51.24C105.698 52.2 105.466 52.912 105.002 53.376C104.546 53.84 103.882 54.072 103.01 54.072ZM110.02 54.072C109.348 54.072 108.792 53.936 108.352 53.664C107.912 53.384 107.584 53 107.368 52.512C107.152 52.024 107.044 51.468 107.044 50.844C107.044 50.212 107.156 49.656 107.38 49.176C107.612 48.688 107.948 48.304 108.388 48.024C108.828 47.744 109.368 47.604 110.008 47.604C110.504 47.604 110.928 47.7 111.28 47.892C111.64 48.076 111.936 48.324 112.168 48.636C112.4 48.948 112.568 49.292 112.672 49.668C112.776 50.036 112.82 50.408 112.804 50.784C112.796 50.856 112.788 50.928 112.78 51C112.78 51.072 112.776 51.144 112.768 51.216H108.076C108.108 51.584 108.2 51.916 108.352 52.212C108.504 52.508 108.72 52.744 109 52.92C109.28 53.088 109.628 53.172 110.044 53.172C110.252 53.172 110.46 53.148 110.668 53.1C110.884 53.044 111.076 52.952 111.244 52.824C111.42 52.696 111.544 52.524 111.616 52.308H112.66C112.564 52.716 112.384 53.052 112.12 53.316C111.856 53.572 111.54 53.764 111.172 53.892C110.804 54.012 110.42 54.072 110.02 54.072ZM108.1 50.328H111.76C111.752 49.968 111.672 49.652 111.52 49.38C111.368 49.108 111.16 48.896 110.896 48.744C110.64 48.592 110.332 48.516 109.972 48.516C109.58 48.516 109.248 48.6 108.976 48.768C108.712 48.936 108.508 49.156 108.364 49.428C108.22 49.7 108.132 50 108.1 50.328ZM113.827 56.016L117.535 44.388H118.615L114.907 56.016H113.827ZM119.882 54V47.676H120.866L120.914 48.432C121.05 48.24 121.202 48.084 121.37 47.964C121.546 47.844 121.738 47.756 121.946 47.7C122.162 47.636 122.39 47.604 122.63 47.604C123.07 47.604 123.426 47.7 123.698 47.892C123.97 48.076 124.174 48.32 124.31 48.624C124.454 48.408 124.618 48.224 124.802 48.072C124.994 47.92 125.206 47.804 125.438 47.724C125.678 47.644 125.942 47.604 126.23 47.604C126.694 47.604 127.066 47.704 127.346 47.904C127.634 48.104 127.842 48.376 127.97 48.72C128.098 49.056 128.162 49.436 128.162 49.86V54H127.142V50.376C127.142 50.168 127.13 49.956 127.106 49.74C127.09 49.524 127.042 49.324 126.962 49.14C126.882 48.948 126.762 48.796 126.602 48.684C126.45 48.564 126.234 48.504 125.954 48.504C125.69 48.504 125.466 48.568 125.282 48.696C125.106 48.816 124.962 48.98 124.85 49.188C124.738 49.396 124.658 49.62 124.61 49.86C124.562 50.092 124.538 50.324 124.538 50.556V54H123.518V50.364C123.518 50.164 123.506 49.956 123.482 49.74C123.466 49.524 123.422 49.324 123.35 49.14C123.286 48.948 123.174 48.796 123.014 48.684C122.862 48.564 122.65 48.504 122.378 48.504C121.994 48.504 121.694 48.616 121.478 48.84C121.262 49.056 121.11 49.324 121.022 49.644C120.942 49.956 120.902 50.264 120.902 50.568V54H119.882ZM132.474 54.072C131.81 54.072 131.254 53.936 130.806 53.664C130.358 53.384 130.022 53 129.798 52.512C129.582 52.024 129.474 51.468 129.474 50.844C129.474 50.212 129.586 49.656 129.81 49.176C130.034 48.688 130.37 48.304 130.818 48.024C131.266 47.744 131.826 47.604 132.498 47.604C133.162 47.604 133.714 47.744 134.154 48.024C134.602 48.304 134.934 48.688 135.15 49.176C135.374 49.656 135.486 50.212 135.486 50.844C135.486 51.468 135.374 52.024 135.15 52.512C134.926 53 134.59 53.384 134.142 53.664C133.702 53.936 133.146 54.072 132.474 54.072ZM132.474 53.172C132.938 53.172 133.314 53.068 133.602 52.86C133.898 52.652 134.114 52.372 134.25 52.02C134.394 51.668 134.466 51.276 134.466 50.844C134.466 50.412 134.394 50.02 134.25 49.668C134.114 49.316 133.898 49.036 133.602 48.828C133.314 48.62 132.938 48.516 132.474 48.516C132.018 48.516 131.642 48.62 131.346 48.828C131.058 49.036 130.842 49.316 130.698 49.668C130.562 50.02 130.494 50.412 130.494 50.844C130.494 51.276 130.562 51.668 130.698 52.02C130.842 52.372 131.058 52.652 131.346 52.86C131.642 53.068 132.018 53.172 132.474 53.172ZM136.851 54V47.676H137.835L137.883 48.636C138.027 48.404 138.211 48.212 138.435 48.06C138.659 47.908 138.903 47.796 139.167 47.724C139.439 47.644 139.703 47.604 139.959 47.604C140.575 47.604 141.055 47.732 141.399 47.988C141.751 48.244 141.999 48.592 142.143 49.032C142.295 49.464 142.371 49.956 142.371 50.508V54H141.351V50.784C141.351 50.488 141.331 50.204 141.291 49.932C141.259 49.66 141.187 49.416 141.075 49.2C140.971 48.984 140.819 48.816 140.619 48.696C140.419 48.568 140.151 48.504 139.815 48.504C139.399 48.504 139.043 48.62 138.747 48.852C138.459 49.084 138.239 49.396 138.087 49.788C137.943 50.18 137.871 50.62 137.871 51.108V54H136.851Z" fill="#4B5563"/>
<defs>
<clipPath id="clip0_342_527">
<rect width="51.1368" height="51.1368" fill="white" transform="translate(188 36)"/>
</clipPath>
</defs>
</svg>
