<svg width="257" height="166" viewBox="0 0 257 166" fill="none" xmlns="http://www.w3.org/2000/svg">
<rect x="147" y="38" width="110" height="110" rx="11.96" fill="#E9F0FC"/>
<rect width="110" height="110" rx="11.96" transform="matrix(-1 0 0 1 110 38)" fill="#E9F0FC"/>
<rect x="102" y="29" width="126" height="127" rx="11.96" fill="#F4F8FE"/>
<rect width="126" height="127" rx="11.96" transform="matrix(-1 0 0 1 155 29)" fill="#F4F8FE"/>
<rect x="55" y="19" width="147" height="147" rx="11.96" fill="white"/>
<circle cx="128.5" cy="29.5" r="29.5" fill="#E9EFFE"/>
<path d="M130.783 41.1956C130.783 39.1289 129.154 37.4536 127.145 37.4536C125.136 37.4536 123.507 39.1289 123.507 41.1956C123.507 43.2622 125.136 44.9375 127.145 44.9375C129.154 44.9375 130.783 43.2622 130.783 41.1956Z" fill="#F7C92B"/>
<path d="M127.145 37.4536C126.777 37.4536 126.422 37.5103 126.087 37.6147C127.581 38.0806 128.668 39.5071 128.668 41.1956C128.668 42.8838 127.581 44.3105 126.087 44.7764C126.422 44.8809 126.777 44.9375 127.145 44.9375C129.154 44.9375 130.783 43.2622 130.783 41.1956C130.783 39.1289 129.154 37.4536 127.145 37.4536Z" fill="#F2B51D"/>
<path d="M127.57 19.3562C126.401 19.5976 125.264 18.8193 125.029 17.6174C124.794 16.4157 125.551 15.2458 126.719 15.0044C127.888 14.7629 129.025 15.5412 129.26 16.7431C129.495 17.9448 128.738 19.1147 127.57 19.3562Z" fill="#F7C92B"/>
<path d="M129.26 16.7431C129.025 15.5412 127.888 14.7629 126.72 15.0044C126.611 15.0268 126.506 15.0576 126.405 15.0952C127.087 15.352 127.627 15.957 127.78 16.7431C127.993 17.833 127.391 18.8967 126.405 19.2654C126.766 19.4011 127.166 19.4397 127.57 19.3562C128.738 19.1147 129.495 17.9448 129.26 16.7431Z" fill="#F2B51D"/>
<path d="M136.156 40.5691H118.134C116.522 40.5691 115.214 39.2246 115.214 37.5662C115.214 36.6479 115.618 35.7791 116.313 35.2026L116.892 34.7222C118.231 33.6113 119.01 31.9368 119.01 30.1672V27.0112C119.01 22.3547 122.68 18.5801 127.207 18.5801C131.734 18.5801 135.404 22.3547 135.404 27.0112V30.2256C135.404 31.9617 136.153 33.6084 137.45 34.7202L138.014 35.2036C138.686 35.7805 139.075 36.635 139.075 37.5359V37.5662C139.075 39.2246 137.768 40.5691 136.156 40.5691Z" fill="#F7E249"/>
<path d="M138.014 35.2039L137.45 34.7205C136.153 33.6084 135.404 31.9619 135.404 30.2256V27.0112C135.404 22.355 131.734 18.5801 127.207 18.5801C126.405 18.5801 125.63 18.6992 124.897 18.9202C128.3 19.9458 130.785 23.1799 130.785 27.0112V30.2256C130.785 31.9619 131.534 33.6084 132.831 34.7205L133.395 35.2039C134.067 35.7808 134.457 36.6353 134.457 37.5361V37.5664C134.457 39.2249 133.149 40.5693 131.537 40.5693H136.156C137.768 40.5693 139.075 39.2249 139.075 37.5664V37.5361C139.075 36.6353 138.687 35.7808 138.014 35.2039Z" fill="#F7C92B"/>
<path d="M141.881 20.1736C141.881 16.1772 138.732 12.9375 134.846 12.9375C130.961 12.9375 127.811 16.1772 127.811 20.1736C127.811 24.1699 130.961 27.4097 134.846 27.4097C138.732 27.4097 141.881 24.1699 141.881 20.1736Z" fill="#FC476E"/>
<path d="M136.734 13.2012C138.528 14.5125 139.699 16.6675 139.699 19.1038C139.699 23.1001 136.549 26.3398 132.664 26.3398C132.01 26.3398 131.377 26.2478 130.776 26.0759C131.925 26.9158 133.33 27.4094 134.846 27.4094C138.732 27.4094 141.881 24.1697 141.881 20.1733C141.881 16.8496 139.703 14.0498 136.734 13.2012Z" fill="#CC2B5A"/>
<path d="M134.847 23.5533C134.575 23.5533 134.355 23.3272 134.355 23.0482V18.1756L134.172 18.3477C133.972 18.5357 133.661 18.5211 133.478 18.3148C133.296 18.1087 133.31 17.7891 133.51 17.6011L134.516 16.6583C134.659 16.5235 134.867 16.4886 135.045 16.5694C135.223 16.6502 135.338 16.8314 135.338 17.0315V23.0482C135.338 23.3272 135.118 23.5533 134.847 23.5533Z" fill="#E3FAFF"/>
<path d="M95.5351 116.472H94.0204V115.097C90.6474 114.903 88.5956 113.206 88.5849 110.574H91.6571C91.7323 111.691 92.6562 112.508 94.0204 112.658V108.469L92.8817 108.2C90.2929 107.599 88.9071 106.105 88.9071 103.871C88.9071 101.239 90.7978 99.542 94.0204 99.2842V97.8125H95.5351V99.2949C98.5429 99.5635 100.476 101.325 100.519 103.796H97.5331C97.5009 102.775 96.6845 101.938 95.5351 101.776V105.783L96.6845 106.009C99.4345 106.61 100.809 108.039 100.809 110.37C100.809 113.099 98.9081 114.796 95.5351 115.086V116.472ZM97.7694 110.714C97.7694 109.672 97.0605 109.038 95.5351 108.737V112.669C96.9423 112.583 97.7694 111.853 97.7694 110.714ZM92.0116 103.603C92.0116 104.548 92.7099 105.192 94.0204 105.472V101.766C92.8495 101.83 92.0116 102.582 92.0116 103.603ZM106.793 115V102.475H106.728L102.775 105.203V102.281L106.782 99.499H110.005V115H106.793ZM113.303 104.161C113.303 101.229 115.644 99.1553 119.028 99.1553C122.294 99.1553 124.539 101.046 124.539 103.635C124.539 105.568 123.25 107.019 121.542 108.716L117.761 112.357V112.422H124.754V115H113.485V112.819L119.329 107.19C120.897 105.622 121.381 104.838 121.381 103.764C121.381 102.604 120.36 101.68 118.921 101.68C117.417 101.68 116.31 102.732 116.31 104.161V104.215H113.303V104.161ZM128.997 118.395H126.644L127.45 112.336H130.436L128.997 118.395ZM132.703 104.161C132.703 101.229 135.045 99.1553 138.429 99.1553C141.694 99.1553 143.939 101.046 143.939 103.635C143.939 105.568 142.65 107.019 140.942 108.716L137.161 112.357V112.422H144.154V115H132.886V112.819L138.729 107.19C140.298 105.622 140.781 104.838 140.781 103.764C140.781 102.604 139.761 101.68 138.321 101.68C136.817 101.68 135.711 102.732 135.711 104.161V104.215H132.703V104.161ZM149.933 108.232V105.891H151.813C153.296 105.891 154.295 105.01 154.295 103.731C154.295 102.475 153.403 101.647 151.792 101.647C150.288 101.647 149.289 102.539 149.203 103.893H146.217C146.335 101.024 148.569 99.1553 151.932 99.1553C155.154 99.1553 157.356 100.81 157.356 103.291C157.356 105.192 156.057 106.567 154.155 106.911V106.976C156.465 107.169 157.958 108.565 157.958 110.714C157.958 113.496 155.433 115.344 151.856 115.344C148.354 115.344 146.066 113.421 145.916 110.563H149.02C149.117 111.874 150.191 112.733 151.899 112.733C153.521 112.733 154.66 111.82 154.66 110.51C154.66 109.092 153.597 108.232 151.846 108.232H149.933ZM166.025 115.344C162.126 115.344 159.752 112.239 159.752 107.223C159.752 102.217 162.147 99.1445 166.025 99.1445C169.903 99.1445 172.288 102.206 172.288 107.212C172.288 112.218 169.925 115.344 166.025 115.344ZM166.025 112.744C167.873 112.744 168.99 110.757 168.99 107.223C168.99 103.721 167.862 101.744 166.025 101.744C164.199 101.744 163.05 103.731 163.05 107.223C163.05 110.746 164.178 112.744 166.025 112.744Z" fill="black"/>
<path opacity="0.6" d="M87.4089 130.292L86.571 127.816H83.0798L82.2419 130.292H80.7629L84.07 121.132H85.6062L88.9133 130.292H87.4089ZM84.8064 122.655L83.4416 126.673H86.2092L84.8444 122.655H84.8064ZM89.7575 130.292V123.614H91.0651V124.737H91.0969C91.3952 123.995 92.0935 123.5 92.9948 123.5C93.9216 123.5 94.5944 123.976 94.861 124.807H94.8928C95.2355 123.995 96.0227 123.5 96.9748 123.5C98.2951 123.5 99.1584 124.375 99.1584 125.702V130.292H97.781V126.032C97.781 125.169 97.3176 124.674 96.5051 124.674C95.6926 124.674 95.1276 125.277 95.1276 126.121V130.292H93.7819V125.931C93.7819 125.163 93.2932 124.674 92.5188 124.674C91.7063 124.674 91.1286 125.309 91.1286 126.166V130.292H89.7575ZM103.354 130.418C101.444 130.418 100.187 129.104 100.187 126.953C100.187 124.807 101.45 123.493 103.354 123.493C105.258 123.493 106.522 124.807 106.522 126.953C106.522 129.104 105.265 130.418 103.354 130.418ZM103.354 129.289C104.433 129.289 105.125 128.438 105.125 126.953C105.125 125.474 104.427 124.623 103.354 124.623C102.281 124.623 101.583 125.474 101.583 126.953C101.583 128.438 102.281 129.289 103.354 129.289ZM113.307 123.614V130.292H111.993V129.162H111.962C111.593 129.961 110.914 130.412 109.892 130.412C108.439 130.412 107.55 129.466 107.55 127.937V123.614H108.921V127.67C108.921 128.686 109.404 129.231 110.349 129.231C111.34 129.231 111.936 128.546 111.936 127.505V123.614H113.307ZM114.666 130.292V123.614H115.973V124.731H116.005C116.367 123.969 117.078 123.5 118.106 123.5C119.579 123.5 120.423 124.439 120.423 125.969V130.292H119.046V126.235C119.046 125.232 118.576 124.68 117.624 124.68C116.659 124.68 116.037 125.366 116.037 126.4V130.292H114.666ZM122.15 122.033H123.527V123.614H124.797V124.699H123.527V128.381C123.527 128.958 123.781 129.219 124.34 129.219C124.479 129.219 124.701 129.206 124.79 129.187V130.272C124.638 130.311 124.333 130.336 124.029 130.336C122.676 130.336 122.15 129.822 122.15 128.533V124.699H121.178V123.614H122.15V122.033ZM128.567 130.292V123.614H129.875V124.75H129.906C130.129 123.969 130.725 123.506 131.512 123.506C131.709 123.506 131.881 123.538 131.982 123.557V124.833C131.874 124.788 131.633 124.756 131.366 124.756C130.484 124.756 129.938 125.347 129.938 126.292V130.292H128.567ZM135.334 124.598C134.375 124.598 133.702 125.328 133.633 126.337H136.971C136.94 125.315 136.292 124.598 135.334 124.598ZM136.965 128.33H138.266C138.076 129.549 136.921 130.418 135.391 130.418C133.429 130.418 132.242 129.092 132.242 126.984C132.242 124.89 133.448 123.493 135.334 123.493C137.187 123.493 138.342 124.801 138.342 126.826V127.295H133.626V127.378C133.626 128.54 134.324 129.308 135.423 129.308C136.203 129.308 136.781 128.914 136.965 128.33ZM145.141 125.912H143.833C143.694 125.201 143.16 124.636 142.265 124.636C141.205 124.636 140.507 125.518 140.507 126.953C140.507 128.419 141.212 129.27 142.278 129.27C143.122 129.27 143.675 128.806 143.833 128.032H145.154C145.008 129.454 143.871 130.418 142.265 130.418C140.355 130.418 139.111 129.111 139.111 126.953C139.111 124.833 140.355 123.493 142.253 123.493C143.973 123.493 145.02 124.598 145.141 125.912ZM148.918 124.598C147.959 124.598 147.286 125.328 147.217 126.337H150.555C150.524 125.315 149.876 124.598 148.918 124.598ZM150.549 128.33H151.85C151.66 129.549 150.505 130.418 148.975 130.418C147.013 130.418 145.826 129.092 145.826 126.984C145.826 124.89 147.032 123.493 148.918 123.493C150.771 123.493 151.926 124.801 151.926 126.826V127.295H147.21V127.378C147.21 128.54 147.908 129.308 149.007 129.308C149.787 129.308 150.365 128.914 150.549 128.33ZM153.037 130.292V123.614H154.408V130.292H153.037ZM153.723 122.636C153.285 122.636 152.929 122.287 152.929 121.855C152.929 121.417 153.285 121.068 153.723 121.068C154.167 121.068 154.523 121.417 154.523 121.855C154.523 122.287 154.167 122.636 153.723 122.636ZM161.511 123.614L159.118 130.292H157.646L155.24 123.614H156.7L158.376 128.952H158.401L160.077 123.614H161.511ZM164.901 124.598C163.943 124.598 163.27 125.328 163.2 126.337H166.539C166.507 125.315 165.86 124.598 164.901 124.598ZM166.532 128.33H167.834C167.643 129.549 166.488 130.418 164.958 130.418C162.997 130.418 161.81 129.092 161.81 126.984C161.81 124.89 163.016 123.493 164.901 123.493C166.755 123.493 167.91 124.801 167.91 126.826V127.295H163.194V127.378C163.194 128.54 163.892 129.308 164.99 129.308C165.771 129.308 166.348 128.914 166.532 128.33ZM171.484 130.406C169.795 130.406 168.678 129.06 168.678 126.953C168.678 124.845 169.795 123.506 171.471 123.506C172.429 123.506 173.191 123.988 173.566 124.725H173.591V121.132H174.968V130.292H173.635V129.155H173.61C173.217 129.917 172.455 130.406 171.484 130.406ZM171.845 124.661C170.76 124.661 170.081 125.55 170.081 126.953C170.081 128.362 170.76 129.244 171.845 129.244C172.899 129.244 173.604 128.349 173.604 126.953C173.604 125.569 172.899 124.661 171.845 124.661Z" fill="black"/>
</svg>
